<?xml version="1.0" encoding="utf-8" standalone="no"?>
<!DOCTYPE svg PUBLIC "-//W3C//DTD SVG 1.1//EN"
  "http://www.w3.org/Graphics/SVG/1.1/DTD/svg11.dtd">
<svg xmlns:xlink="http://www.w3.org/1999/xlink" width="904.020625pt" height="350.62375pt" viewBox="0 0 904.020625 350.62375" xmlns="http://www.w3.org/2000/svg" version="1.1">
 <metadata>
  <rdf:RDF xmlns:dc="http://purl.org/dc/elements/1.1/" xmlns:cc="http://creativecommons.org/ns#" xmlns:rdf="http://www.w3.org/1999/02/22-rdf-syntax-ns#">
   <cc:Work>
    <dc:type rdf:resource="http://purl.org/dc/dcmitype/StillImage"/>
    <dc:date>2023-09-18T12:24:36.236028</dc:date>
    <dc:format>image/svg+xml</dc:format>
    <dc:creator>
     <cc:Agent>
      <dc:title>Matplotlib v3.5.1, https://matplotlib.org/</dc:title>
     </cc:Agent>
    </dc:creator>
   </cc:Work>
  </rdf:RDF>
 </metadata>
 <defs>
  <style type="text/css">*{stroke-linejoin: round; stroke-linecap: butt}</style>
 </defs>
 <g id="figure_1">
  <g id="patch_1">
   <path d="M 0 350.62375 
L 904.020625 350.62375 
L 904.020625 0 
L 0 0 
z
" style="fill: #ffffff"/>
  </g>
  <g id="axes_1">
   <g id="patch_2">
    <path d="M 59.820625 299.518125 
L 440.27517 299.518125 
L 440.27517 22.318125 
L 59.820625 22.318125 
z
" style="fill: #ffffff"/>
   </g>
   <g id="matplotlib.axis_1">
    <g id="xtick_1">
     <g id="line2d_1">
      <defs>
       <path id="m22f88941b1" d="M 0 0 
L 0 3.5 
" style="stroke: #000000; stroke-width: 0.8"/>
      </defs>
      <g>
       <use xlink:href="#m22f88941b1" x="113.070564" y="299.518125" style="stroke: #000000; stroke-width: 0.8"/>
      </g>
     </g>
     <g id="text_1">
      <!-- −20 -->
      <g transform="translate(98.297282 317.155938)scale(0.14 -0.14)">
       <defs>
        <path id="DejaVuSans-2212" d="M 678 2272 
L 4684 2272 
L 4684 1741 
L 678 1741 
L 678 2272 
z
" transform="scale(0.015625)"/>
        <path id="DejaVuSans-32" d="M 1228 531 
L 3431 531 
L 3431 0 
L 469 0 
L 469 531 
Q 828 903 1448 1529 
Q 2069 2156 2228 2338 
Q 2531 2678 2651 2914 
Q 2772 3150 2772 3378 
Q 2772 3750 2511 3984 
Q 2250 4219 1831 4219 
Q 1534 4219 1204 4116 
Q 875 4013 500 3803 
L 500 4441 
Q 881 4594 1212 4672 
Q 1544 4750 1819 4750 
Q 2544 4750 2975 4387 
Q 3406 4025 3406 3419 
Q 3406 3131 3298 2873 
Q 3191 2616 2906 2266 
Q 2828 2175 2409 1742 
Q 1991 1309 1228 531 
z
" transform="scale(0.015625)"/>
        <path id="DejaVuSans-30" d="M 2034 4250 
Q 1547 4250 1301 3770 
Q 1056 3291 1056 2328 
Q 1056 1369 1301 889 
Q 1547 409 2034 409 
Q 2525 409 2770 889 
Q 3016 1369 3016 2328 
Q 3016 3291 2770 3770 
Q 2525 4250 2034 4250 
z
M 2034 4750 
Q 2819 4750 3233 4129 
Q 3647 3509 3647 2328 
Q 3647 1150 3233 529 
Q 2819 -91 2034 -91 
Q 1250 -91 836 529 
Q 422 1150 422 2328 
Q 422 3509 836 4129 
Q 1250 4750 2034 4750 
z
" transform="scale(0.015625)"/>
       </defs>
       <use xlink:href="#DejaVuSans-2212"/>
       <use xlink:href="#DejaVuSans-32" x="83.789062"/>
       <use xlink:href="#DejaVuSans-30" x="147.412109"/>
      </g>
     </g>
    </g>
    <g id="xtick_2">
     <g id="line2d_2">
      <g>
       <use xlink:href="#m22f88941b1" x="181.559231" y="299.518125" style="stroke: #000000; stroke-width: 0.8"/>
      </g>
     </g>
     <g id="text_2">
      <!-- −10 -->
      <g transform="translate(166.785949 317.155938)scale(0.14 -0.14)">
       <defs>
        <path id="DejaVuSans-31" d="M 794 531 
L 1825 531 
L 1825 4091 
L 703 3866 
L 703 4441 
L 1819 4666 
L 2450 4666 
L 2450 531 
L 3481 531 
L 3481 0 
L 794 0 
L 794 531 
z
" transform="scale(0.015625)"/>
       </defs>
       <use xlink:href="#DejaVuSans-2212"/>
       <use xlink:href="#DejaVuSans-31" x="83.789062"/>
       <use xlink:href="#DejaVuSans-30" x="147.412109"/>
      </g>
     </g>
    </g>
    <g id="xtick_3">
     <g id="line2d_3">
      <g>
       <use xlink:href="#m22f88941b1" x="250.047898" y="299.518125" style="stroke: #000000; stroke-width: 0.8"/>
      </g>
     </g>
     <g id="text_3">
      <!-- 0 -->
      <g transform="translate(245.594148 317.155938)scale(0.14 -0.14)">
       <use xlink:href="#DejaVuSans-30"/>
      </g>
     </g>
    </g>
    <g id="xtick_4">
     <g id="line2d_4">
      <g>
       <use xlink:href="#m22f88941b1" x="318.536565" y="299.518125" style="stroke: #000000; stroke-width: 0.8"/>
      </g>
     </g>
     <g id="text_4">
      <!-- 10 -->
      <g transform="translate(309.629065 317.155938)scale(0.14 -0.14)">
       <use xlink:href="#DejaVuSans-31"/>
       <use xlink:href="#DejaVuSans-30" x="63.623047"/>
      </g>
     </g>
    </g>
    <g id="xtick_5">
     <g id="line2d_5">
      <g>
       <use xlink:href="#m22f88941b1" x="387.025232" y="299.518125" style="stroke: #000000; stroke-width: 0.8"/>
      </g>
     </g>
     <g id="text_5">
      <!-- 20 -->
      <g transform="translate(378.117732 317.155938)scale(0.14 -0.14)">
       <use xlink:href="#DejaVuSans-32"/>
       <use xlink:href="#DejaVuSans-30" x="63.623047"/>
      </g>
     </g>
    </g>
    <g id="text_6">
     <!-- Distance from stim [um] -->
     <g transform="translate(127.99321 339.264375)scale(0.2 -0.2)">
      <defs>
       <path id="DejaVuSans-44" d="M 1259 4147 
L 1259 519 
L 2022 519 
Q 2988 519 3436 956 
Q 3884 1394 3884 2338 
Q 3884 3275 3436 3711 
Q 2988 4147 2022 4147 
L 1259 4147 
z
M 628 4666 
L 1925 4666 
Q 3281 4666 3915 4102 
Q 4550 3538 4550 2338 
Q 4550 1131 3912 565 
Q 3275 0 1925 0 
L 628 0 
L 628 4666 
z
" transform="scale(0.015625)"/>
       <path id="DejaVuSans-69" d="M 603 3500 
L 1178 3500 
L 1178 0 
L 603 0 
L 603 3500 
z
M 603 4863 
L 1178 4863 
L 1178 4134 
L 603 4134 
L 603 4863 
z
" transform="scale(0.015625)"/>
       <path id="DejaVuSans-73" d="M 2834 3397 
L 2834 2853 
Q 2591 2978 2328 3040 
Q 2066 3103 1784 3103 
Q 1356 3103 1142 2972 
Q 928 2841 928 2578 
Q 928 2378 1081 2264 
Q 1234 2150 1697 2047 
L 1894 2003 
Q 2506 1872 2764 1633 
Q 3022 1394 3022 966 
Q 3022 478 2636 193 
Q 2250 -91 1575 -91 
Q 1294 -91 989 -36 
Q 684 19 347 128 
L 347 722 
Q 666 556 975 473 
Q 1284 391 1588 391 
Q 1994 391 2212 530 
Q 2431 669 2431 922 
Q 2431 1156 2273 1281 
Q 2116 1406 1581 1522 
L 1381 1569 
Q 847 1681 609 1914 
Q 372 2147 372 2553 
Q 372 3047 722 3315 
Q 1072 3584 1716 3584 
Q 2034 3584 2315 3537 
Q 2597 3491 2834 3397 
z
" transform="scale(0.015625)"/>
       <path id="DejaVuSans-74" d="M 1172 4494 
L 1172 3500 
L 2356 3500 
L 2356 3053 
L 1172 3053 
L 1172 1153 
Q 1172 725 1289 603 
Q 1406 481 1766 481 
L 2356 481 
L 2356 0 
L 1766 0 
Q 1100 0 847 248 
Q 594 497 594 1153 
L 594 3053 
L 172 3053 
L 172 3500 
L 594 3500 
L 594 4494 
L 1172 4494 
z
" transform="scale(0.015625)"/>
       <path id="DejaVuSans-61" d="M 2194 1759 
Q 1497 1759 1228 1600 
Q 959 1441 959 1056 
Q 959 750 1161 570 
Q 1363 391 1709 391 
Q 2188 391 2477 730 
Q 2766 1069 2766 1631 
L 2766 1759 
L 2194 1759 
z
M 3341 1997 
L 3341 0 
L 2766 0 
L 2766 531 
Q 2569 213 2275 61 
Q 1981 -91 1556 -91 
Q 1019 -91 701 211 
Q 384 513 384 1019 
Q 384 1609 779 1909 
Q 1175 2209 1959 2209 
L 2766 2209 
L 2766 2266 
Q 2766 2663 2505 2880 
Q 2244 3097 1772 3097 
Q 1472 3097 1187 3025 
Q 903 2953 641 2809 
L 641 3341 
Q 956 3463 1253 3523 
Q 1550 3584 1831 3584 
Q 2591 3584 2966 3190 
Q 3341 2797 3341 1997 
z
" transform="scale(0.015625)"/>
       <path id="DejaVuSans-6e" d="M 3513 2113 
L 3513 0 
L 2938 0 
L 2938 2094 
Q 2938 2591 2744 2837 
Q 2550 3084 2163 3084 
Q 1697 3084 1428 2787 
Q 1159 2491 1159 1978 
L 1159 0 
L 581 0 
L 581 3500 
L 1159 3500 
L 1159 2956 
Q 1366 3272 1645 3428 
Q 1925 3584 2291 3584 
Q 2894 3584 3203 3211 
Q 3513 2838 3513 2113 
z
" transform="scale(0.015625)"/>
       <path id="DejaVuSans-63" d="M 3122 3366 
L 3122 2828 
Q 2878 2963 2633 3030 
Q 2388 3097 2138 3097 
Q 1578 3097 1268 2742 
Q 959 2388 959 1747 
Q 959 1106 1268 751 
Q 1578 397 2138 397 
Q 2388 397 2633 464 
Q 2878 531 3122 666 
L 3122 134 
Q 2881 22 2623 -34 
Q 2366 -91 2075 -91 
Q 1284 -91 818 406 
Q 353 903 353 1747 
Q 353 2603 823 3093 
Q 1294 3584 2113 3584 
Q 2378 3584 2631 3529 
Q 2884 3475 3122 3366 
z
" transform="scale(0.015625)"/>
       <path id="DejaVuSans-65" d="M 3597 1894 
L 3597 1613 
L 953 1613 
Q 991 1019 1311 708 
Q 1631 397 2203 397 
Q 2534 397 2845 478 
Q 3156 559 3463 722 
L 3463 178 
Q 3153 47 2828 -22 
Q 2503 -91 2169 -91 
Q 1331 -91 842 396 
Q 353 884 353 1716 
Q 353 2575 817 3079 
Q 1281 3584 2069 3584 
Q 2775 3584 3186 3129 
Q 3597 2675 3597 1894 
z
M 3022 2063 
Q 3016 2534 2758 2815 
Q 2500 3097 2075 3097 
Q 1594 3097 1305 2825 
Q 1016 2553 972 2059 
L 3022 2063 
z
" transform="scale(0.015625)"/>
       <path id="DejaVuSans-20" transform="scale(0.015625)"/>
       <path id="DejaVuSans-66" d="M 2375 4863 
L 2375 4384 
L 1825 4384 
Q 1516 4384 1395 4259 
Q 1275 4134 1275 3809 
L 1275 3500 
L 2222 3500 
L 2222 3053 
L 1275 3053 
L 1275 0 
L 697 0 
L 697 3053 
L 147 3053 
L 147 3500 
L 697 3500 
L 697 3744 
Q 697 4328 969 4595 
Q 1241 4863 1831 4863 
L 2375 4863 
z
" transform="scale(0.015625)"/>
       <path id="DejaVuSans-72" d="M 2631 2963 
Q 2534 3019 2420 3045 
Q 2306 3072 2169 3072 
Q 1681 3072 1420 2755 
Q 1159 2438 1159 1844 
L 1159 0 
L 581 0 
L 581 3500 
L 1159 3500 
L 1159 2956 
Q 1341 3275 1631 3429 
Q 1922 3584 2338 3584 
Q 2397 3584 2469 3576 
Q 2541 3569 2628 3553 
L 2631 2963 
z
" transform="scale(0.015625)"/>
       <path id="DejaVuSans-6f" d="M 1959 3097 
Q 1497 3097 1228 2736 
Q 959 2375 959 1747 
Q 959 1119 1226 758 
Q 1494 397 1959 397 
Q 2419 397 2687 759 
Q 2956 1122 2956 1747 
Q 2956 2369 2687 2733 
Q 2419 3097 1959 3097 
z
M 1959 3584 
Q 2709 3584 3137 3096 
Q 3566 2609 3566 1747 
Q 3566 888 3137 398 
Q 2709 -91 1959 -91 
Q 1206 -91 779 398 
Q 353 888 353 1747 
Q 353 2609 779 3096 
Q 1206 3584 1959 3584 
z
" transform="scale(0.015625)"/>
       <path id="DejaVuSans-6d" d="M 3328 2828 
Q 3544 3216 3844 3400 
Q 4144 3584 4550 3584 
Q 5097 3584 5394 3201 
Q 5691 2819 5691 2113 
L 5691 0 
L 5113 0 
L 5113 2094 
Q 5113 2597 4934 2840 
Q 4756 3084 4391 3084 
Q 3944 3084 3684 2787 
Q 3425 2491 3425 1978 
L 3425 0 
L 2847 0 
L 2847 2094 
Q 2847 2600 2669 2842 
Q 2491 3084 2119 3084 
Q 1678 3084 1418 2786 
Q 1159 2488 1159 1978 
L 1159 0 
L 581 0 
L 581 3500 
L 1159 3500 
L 1159 2956 
Q 1356 3278 1631 3431 
Q 1906 3584 2284 3584 
Q 2666 3584 2933 3390 
Q 3200 3197 3328 2828 
z
" transform="scale(0.015625)"/>
       <path id="DejaVuSans-5b" d="M 550 4863 
L 1875 4863 
L 1875 4416 
L 1125 4416 
L 1125 -397 
L 1875 -397 
L 1875 -844 
L 550 -844 
L 550 4863 
z
" transform="scale(0.015625)"/>
       <path id="DejaVuSans-75" d="M 544 1381 
L 544 3500 
L 1119 3500 
L 1119 1403 
Q 1119 906 1312 657 
Q 1506 409 1894 409 
Q 2359 409 2629 706 
Q 2900 1003 2900 1516 
L 2900 3500 
L 3475 3500 
L 3475 0 
L 2900 0 
L 2900 538 
Q 2691 219 2414 64 
Q 2138 -91 1772 -91 
Q 1169 -91 856 284 
Q 544 659 544 1381 
z
M 1991 3584 
L 1991 3584 
z
" transform="scale(0.015625)"/>
       <path id="DejaVuSans-5d" d="M 1947 4863 
L 1947 -844 
L 622 -844 
L 622 -397 
L 1369 -397 
L 1369 4416 
L 622 4416 
L 622 4863 
L 1947 4863 
z
" transform="scale(0.015625)"/>
      </defs>
      <use xlink:href="#DejaVuSans-44"/>
      <use xlink:href="#DejaVuSans-69" x="77.001953"/>
      <use xlink:href="#DejaVuSans-73" x="104.785156"/>
      <use xlink:href="#DejaVuSans-74" x="156.884766"/>
      <use xlink:href="#DejaVuSans-61" x="196.09375"/>
      <use xlink:href="#DejaVuSans-6e" x="257.373047"/>
      <use xlink:href="#DejaVuSans-63" x="320.751953"/>
      <use xlink:href="#DejaVuSans-65" x="375.732422"/>
      <use xlink:href="#DejaVuSans-20" x="437.255859"/>
      <use xlink:href="#DejaVuSans-66" x="469.042969"/>
      <use xlink:href="#DejaVuSans-72" x="504.248047"/>
      <use xlink:href="#DejaVuSans-6f" x="543.111328"/>
      <use xlink:href="#DejaVuSans-6d" x="604.292969"/>
      <use xlink:href="#DejaVuSans-20" x="701.705078"/>
      <use xlink:href="#DejaVuSans-73" x="733.492188"/>
      <use xlink:href="#DejaVuSans-74" x="785.591797"/>
      <use xlink:href="#DejaVuSans-69" x="824.800781"/>
      <use xlink:href="#DejaVuSans-6d" x="852.583984"/>
      <use xlink:href="#DejaVuSans-20" x="949.996094"/>
      <use xlink:href="#DejaVuSans-5b" x="981.783203"/>
      <use xlink:href="#DejaVuSans-75" x="1020.796875"/>
      <use xlink:href="#DejaVuSans-6d" x="1084.175781"/>
      <use xlink:href="#DejaVuSans-5d" x="1181.587891"/>
     </g>
    </g>
   </g>
   <g id="matplotlib.axis_2">
    <g id="ytick_1">
     <g id="line2d_6">
      <defs>
       <path id="mc783972e8f" d="M 0 0 
L -3.5 0 
" style="stroke: #000000; stroke-width: 0.8"/>
      </defs>
      <g>
       <use xlink:href="#mc783972e8f" x="59.820625" y="278.644696" style="stroke: #000000; stroke-width: 0.8"/>
      </g>
     </g>
     <g id="text_7">
      <!-- 0.2 -->
      <g transform="translate(30.55625 283.963602)scale(0.14 -0.14)">
       <defs>
        <path id="DejaVuSans-2e" d="M 684 794 
L 1344 794 
L 1344 0 
L 684 0 
L 684 794 
z
" transform="scale(0.015625)"/>
       </defs>
       <use xlink:href="#DejaVuSans-30"/>
       <use xlink:href="#DejaVuSans-2e" x="63.623047"/>
       <use xlink:href="#DejaVuSans-32" x="95.410156"/>
      </g>
     </g>
    </g>
    <g id="ytick_2">
     <g id="line2d_7">
      <g>
       <use xlink:href="#mc783972e8f" x="59.820625" y="236.523928" style="stroke: #000000; stroke-width: 0.8"/>
      </g>
     </g>
     <g id="text_8">
      <!-- 0.4 -->
      <g transform="translate(30.55625 241.842834)scale(0.14 -0.14)">
       <defs>
        <path id="DejaVuSans-34" d="M 2419 4116 
L 825 1625 
L 2419 1625 
L 2419 4116 
z
M 2253 4666 
L 3047 4666 
L 3047 1625 
L 3713 1625 
L 3713 1100 
L 3047 1100 
L 3047 0 
L 2419 0 
L 2419 1100 
L 313 1100 
L 313 1709 
L 2253 4666 
z
" transform="scale(0.015625)"/>
       </defs>
       <use xlink:href="#DejaVuSans-30"/>
       <use xlink:href="#DejaVuSans-2e" x="63.623047"/>
       <use xlink:href="#DejaVuSans-34" x="95.410156"/>
      </g>
     </g>
    </g>
    <g id="ytick_3">
     <g id="line2d_8">
      <g>
       <use xlink:href="#mc783972e8f" x="59.820625" y="194.40316" style="stroke: #000000; stroke-width: 0.8"/>
      </g>
     </g>
     <g id="text_9">
      <!-- 0.6 -->
      <g transform="translate(30.55625 199.722067)scale(0.14 -0.14)">
       <defs>
        <path id="DejaVuSans-36" d="M 2113 2584 
Q 1688 2584 1439 2293 
Q 1191 2003 1191 1497 
Q 1191 994 1439 701 
Q 1688 409 2113 409 
Q 2538 409 2786 701 
Q 3034 994 3034 1497 
Q 3034 2003 2786 2293 
Q 2538 2584 2113 2584 
z
M 3366 4563 
L 3366 3988 
Q 3128 4100 2886 4159 
Q 2644 4219 2406 4219 
Q 1781 4219 1451 3797 
Q 1122 3375 1075 2522 
Q 1259 2794 1537 2939 
Q 1816 3084 2150 3084 
Q 2853 3084 3261 2657 
Q 3669 2231 3669 1497 
Q 3669 778 3244 343 
Q 2819 -91 2113 -91 
Q 1303 -91 875 529 
Q 447 1150 447 2328 
Q 447 3434 972 4092 
Q 1497 4750 2381 4750 
Q 2619 4750 2861 4703 
Q 3103 4656 3366 4563 
z
" transform="scale(0.015625)"/>
       </defs>
       <use xlink:href="#DejaVuSans-30"/>
       <use xlink:href="#DejaVuSans-2e" x="63.623047"/>
       <use xlink:href="#DejaVuSans-36" x="95.410156"/>
      </g>
     </g>
    </g>
    <g id="ytick_4">
     <g id="line2d_9">
      <g>
       <use xlink:href="#mc783972e8f" x="59.820625" y="152.282393" style="stroke: #000000; stroke-width: 0.8"/>
      </g>
     </g>
     <g id="text_10">
      <!-- 0.8 -->
      <g transform="translate(30.55625 157.601299)scale(0.14 -0.14)">
       <defs>
        <path id="DejaVuSans-38" d="M 2034 2216 
Q 1584 2216 1326 1975 
Q 1069 1734 1069 1313 
Q 1069 891 1326 650 
Q 1584 409 2034 409 
Q 2484 409 2743 651 
Q 3003 894 3003 1313 
Q 3003 1734 2745 1975 
Q 2488 2216 2034 2216 
z
M 1403 2484 
Q 997 2584 770 2862 
Q 544 3141 544 3541 
Q 544 4100 942 4425 
Q 1341 4750 2034 4750 
Q 2731 4750 3128 4425 
Q 3525 4100 3525 3541 
Q 3525 3141 3298 2862 
Q 3072 2584 2669 2484 
Q 3125 2378 3379 2068 
Q 3634 1759 3634 1313 
Q 3634 634 3220 271 
Q 2806 -91 2034 -91 
Q 1263 -91 848 271 
Q 434 634 434 1313 
Q 434 1759 690 2068 
Q 947 2378 1403 2484 
z
M 1172 3481 
Q 1172 3119 1398 2916 
Q 1625 2713 2034 2713 
Q 2441 2713 2670 2916 
Q 2900 3119 2900 3481 
Q 2900 3844 2670 4047 
Q 2441 4250 2034 4250 
Q 1625 4250 1398 4047 
Q 1172 3844 1172 3481 
z
" transform="scale(0.015625)"/>
       </defs>
       <use xlink:href="#DejaVuSans-30"/>
       <use xlink:href="#DejaVuSans-2e" x="63.623047"/>
       <use xlink:href="#DejaVuSans-38" x="95.410156"/>
      </g>
     </g>
    </g>
    <g id="ytick_5">
     <g id="line2d_10">
      <g>
       <use xlink:href="#mc783972e8f" x="59.820625" y="110.161625" style="stroke: #000000; stroke-width: 0.8"/>
      </g>
     </g>
     <g id="text_11">
      <!-- 1.0 -->
      <g transform="translate(30.55625 115.480531)scale(0.14 -0.14)">
       <use xlink:href="#DejaVuSans-31"/>
       <use xlink:href="#DejaVuSans-2e" x="63.623047"/>
       <use xlink:href="#DejaVuSans-30" x="95.410156"/>
      </g>
     </g>
    </g>
    <g id="ytick_6">
     <g id="line2d_11">
      <g>
       <use xlink:href="#mc783972e8f" x="59.820625" y="68.040857" style="stroke: #000000; stroke-width: 0.8"/>
      </g>
     </g>
     <g id="text_12">
      <!-- 1.2 -->
      <g transform="translate(30.55625 73.359764)scale(0.14 -0.14)">
       <use xlink:href="#DejaVuSans-31"/>
       <use xlink:href="#DejaVuSans-2e" x="63.623047"/>
       <use xlink:href="#DejaVuSans-32" x="95.410156"/>
      </g>
     </g>
    </g>
    <g id="ytick_7">
     <g id="line2d_12">
      <g>
       <use xlink:href="#mc783972e8f" x="59.820625" y="25.92009" style="stroke: #000000; stroke-width: 0.8"/>
      </g>
     </g>
     <g id="text_13">
      <!-- 1.4 -->
      <g transform="translate(30.55625 31.238996)scale(0.14 -0.14)">
       <use xlink:href="#DejaVuSans-31"/>
       <use xlink:href="#DejaVuSans-2e" x="63.623047"/>
       <use xlink:href="#DejaVuSans-34" x="95.410156"/>
      </g>
     </g>
    </g>
    <g id="text_14">
     <!-- Calcium [uM] -->
     <g transform="translate(22.396875 227.10875)rotate(-90)scale(0.2 -0.2)">
      <defs>
       <path id="DejaVuSans-43" d="M 4122 4306 
L 4122 3641 
Q 3803 3938 3442 4084 
Q 3081 4231 2675 4231 
Q 1875 4231 1450 3742 
Q 1025 3253 1025 2328 
Q 1025 1406 1450 917 
Q 1875 428 2675 428 
Q 3081 428 3442 575 
Q 3803 722 4122 1019 
L 4122 359 
Q 3791 134 3420 21 
Q 3050 -91 2638 -91 
Q 1578 -91 968 557 
Q 359 1206 359 2328 
Q 359 3453 968 4101 
Q 1578 4750 2638 4750 
Q 3056 4750 3426 4639 
Q 3797 4528 4122 4306 
z
" transform="scale(0.015625)"/>
       <path id="DejaVuSans-6c" d="M 603 4863 
L 1178 4863 
L 1178 0 
L 603 0 
L 603 4863 
z
" transform="scale(0.015625)"/>
       <path id="DejaVuSans-4d" d="M 628 4666 
L 1569 4666 
L 2759 1491 
L 3956 4666 
L 4897 4666 
L 4897 0 
L 4281 0 
L 4281 4097 
L 3078 897 
L 2444 897 
L 1241 4097 
L 1241 0 
L 628 0 
L 628 4666 
z
" transform="scale(0.015625)"/>
      </defs>
      <use xlink:href="#DejaVuSans-43"/>
      <use xlink:href="#DejaVuSans-61" x="69.824219"/>
      <use xlink:href="#DejaVuSans-6c" x="131.103516"/>
      <use xlink:href="#DejaVuSans-63" x="158.886719"/>
      <use xlink:href="#DejaVuSans-69" x="213.867188"/>
      <use xlink:href="#DejaVuSans-75" x="241.650391"/>
      <use xlink:href="#DejaVuSans-6d" x="305.029297"/>
      <use xlink:href="#DejaVuSans-20" x="402.441406"/>
      <use xlink:href="#DejaVuSans-5b" x="434.228516"/>
      <use xlink:href="#DejaVuSans-75" x="473.242188"/>
      <use xlink:href="#DejaVuSans-4d" x="536.621094"/>
      <use xlink:href="#DejaVuSans-5d" x="622.900391"/>
     </g>
    </g>
   </g>
   <g id="line2d_13">
    <path d="M 77.114013 298.648014 
L 80.538447 298.517912 
L 83.96288 298.648014 
L 87.387313 297.997501 
L 90.811747 297.737296 
L 94.23618 297.867399 
L 97.660614 297.997501 
L 101.085047 297.737296 
L 104.50948 298.257706 
L 107.933914 297.477091 
L 111.358347 296.306167 
L 114.78278 297.607193 
L 118.207214 297.086783 
L 121.631647 297.737296 
L 125.05608 297.086783 
L 128.480514 296.696475 
L 131.904947 295.785756 
L 135.32938 295.915859 
L 138.753814 293.964319 
L 142.178247 295.265346 
L 145.60268 293.313806 
L 149.027114 291.752574 
L 152.451547 290.711753 
L 155.875981 287.58929 
L 159.300414 287.459187 
L 162.724847 286.158161 
L 166.149281 285.507648 
L 169.573714 284.336724 
L 172.998147 283.816313 
L 176.422581 285.63775 
L 179.847014 281.474466 
L 183.271447 280.69385 
L 186.695881 279.132618 
L 190.120314 277.311181 
L 193.544747 275.489744 
L 196.969181 275.359641 
L 200.393614 275.880052 
L 203.818047 272.107075 
L 207.242481 270.545844 
L 210.666914 267.813688 
L 214.091348 264.43102 
L 217.515781 270.415741 
L 220.940214 266.382559 
L 224.364648 263.520301 
L 227.789081 262.869788 
L 231.213514 267.553483 
L 234.637948 259.226914 
L 238.062381 254.022808 
L 241.486814 261.438659 
L 244.911248 229.173204 
L 248.335681 46.509094 
L 251.760114 67.845928 
L 255.184548 236.458952 
L 258.608981 261.698864 
L 262.033414 259.096811 
L 265.457848 266.772867 
L 268.882281 268.334099 
L 272.306715 266.382559 
L 275.731148 271.066254 
L 279.155581 272.497383 
L 282.580015 270.806049 
L 286.004448 273.017794 
L 289.428881 272.757589 
L 292.853315 270.545844 
L 296.277748 274.31882 
L 299.702181 278.612208 
L 303.126615 280.043337 
L 306.551048 279.783131 
L 309.975481 280.043337 
L 313.399915 283.1658 
L 316.824348 283.295903 
L 320.248781 280.043337 
L 323.673215 281.474466 
L 327.097648 283.1658 
L 330.522082 285.247442 
L 333.946515 289.150522 
L 337.370948 290.451548 
L 340.795382 291.362266 
L 344.219815 290.971958 
L 347.644248 292.272985 
L 351.068682 293.704114 
L 354.493115 295.135243 
L 357.917548 295.265346 
L 361.341982 294.744935 
L 364.766415 296.176064 
L 368.190848 295.525551 
L 371.615282 296.306167 
L 375.039715 295.915859 
L 378.464148 296.95668 
L 381.888582 298.387809 
L 385.313015 297.607193 
L 388.737449 298.127604 
L 392.161882 297.607193 
L 395.586315 297.737296 
L 399.010749 298.127604 
L 402.435182 296.696475 
L 405.859615 298.387809 
L 409.284049 298.387809 
L 412.708482 297.737296 
L 416.132915 298.257706 
L 419.557349 295.00514 
L 422.981782 295.915859 
" clip-path="url(#pfb4d854bbe)" style="fill: none; stroke: #2ca02c; stroke-width: 1.5; stroke-linecap: square"/>
   </g>
   <g id="line2d_14">
    <path d="M 77.114013 295.525551 
L 80.538447 297.607193 
L 83.96288 297.997501 
L 87.387313 298.387809 
L 90.811747 298.257706 
L 94.23618 297.867399 
L 97.660614 297.867399 
L 101.085047 297.737296 
L 104.50948 297.867399 
L 107.933914 297.737296 
L 111.358347 297.997501 
L 114.78278 297.997501 
L 118.207214 298.257706 
L 121.631647 298.257706 
L 125.05608 298.127604 
L 128.480514 295.785756 
L 131.904947 298.257706 
L 135.32938 297.997501 
L 138.753814 298.257706 
L 142.178247 296.045962 
L 145.60268 296.696475 
L 149.027114 297.346988 
L 152.451547 297.346988 
L 155.875981 297.607193 
L 159.300414 296.436269 
L 162.724847 297.086783 
L 166.149281 296.696475 
L 169.573714 293.443909 
L 172.998147 296.436269 
L 176.422581 295.395448 
L 179.847014 293.574011 
L 183.271447 293.183703 
L 186.695881 289.150522 
L 190.120314 289.020419 
L 193.544747 284.596929 
L 196.969181 286.418366 
L 200.393614 287.459187 
L 203.818047 278.482105 
L 207.242481 278.2219 
L 210.666914 279.653029 
L 214.091348 277.181078 
L 217.515781 279.522926 
L 220.940214 275.229539 
L 224.364648 265.992251 
L 227.789081 269.765228 
L 231.213514 267.683586 
L 234.637948 260.397838 
L 238.062381 258.576401 
L 241.486814 243.354392 
L 244.911248 233.466591 
L 248.335681 32.848317 
L 251.760114 53.794842 
L 255.184548 236.458952 
L 258.608981 255.453937 
L 262.033414 258.836606 
L 265.457848 244.395213 
L 268.882281 256.364656 
L 272.306715 267.553483 
L 275.731148 275.359641 
L 279.155581 274.969334 
L 282.580015 278.091797 
L 286.004448 277.961694 
L 289.428881 280.954055 
L 292.853315 283.035697 
L 296.277748 284.336724 
L 299.702181 285.377545 
L 303.126615 286.678571 
L 306.551048 286.938777 
L 309.975481 285.507648 
L 313.399915 292.01278 
L 316.824348 293.834217 
L 320.248781 294.875038 
L 323.673215 295.265346 
L 327.097648 295.655654 
L 330.522082 296.045962 
L 333.946515 297.216885 
L 337.370948 297.346988 
L 340.795382 296.95668 
L 344.219815 297.607193 
L 347.644248 297.607193 
L 351.068682 297.867399 
L 354.493115 298.387809 
L 357.917548 296.306167 
L 361.341982 297.086783 
L 364.766415 298.387809 
L 368.190848 297.607193 
L 371.615282 298.127604 
L 375.039715 297.997501 
L 378.464148 297.997501 
L 381.888582 298.257706 
L 385.313015 297.477091 
L 388.737449 297.737296 
L 392.161882 297.086783 
L 395.586315 298.387809 
L 399.010749 297.477091 
L 402.435182 297.607193 
L 405.859615 298.257706 
L 409.284049 298.648014 
L 412.708482 298.257706 
L 416.132915 298.517912 
L 419.557349 297.867399 
L 422.981782 298.127604 
" clip-path="url(#pfb4d854bbe)" style="fill: none; stroke: #e377c2; stroke-width: 1.5; stroke-linecap: square"/>
   </g>
   <g id="line2d_15">
    <path d="M 77.114013 298.90822 
L 80.538447 298.648014 
L 83.96288 295.395448 
L 87.387313 299.038322 
L 90.811747 298.517912 
L 94.23618 298.257706 
L 97.660614 297.997501 
L 101.085047 298.257706 
L 104.50948 298.648014 
L 107.933914 297.997501 
L 111.358347 298.127604 
L 114.78278 298.257706 
L 118.207214 297.997501 
L 121.631647 298.127604 
L 125.05608 297.607193 
L 128.480514 297.867399 
L 131.904947 297.737296 
L 135.32938 298.127604 
L 138.753814 297.607193 
L 142.178247 298.257706 
L 145.60268 298.517912 
L 149.027114 298.257706 
L 152.451547 296.696475 
L 155.875981 298.778117 
L 159.300414 298.90822 
L 162.724847 297.346988 
L 166.149281 298.127604 
L 169.573714 298.517912 
L 172.998147 297.867399 
L 176.422581 298.257706 
L 179.847014 297.997501 
L 183.271447 297.086783 
L 186.695881 298.517912 
L 190.120314 296.696475 
L 193.544747 298.387809 
L 196.969181 297.086783 
L 200.393614 297.997501 
L 203.818047 297.867399 
L 207.242481 297.867399 
L 210.666914 296.436269 
L 214.091348 296.306167 
L 217.515781 294.094422 
L 220.940214 296.306167 
L 224.364648 294.744935 
L 227.789081 293.574011 
L 231.213514 293.443909 
L 234.637948 291.882677 
L 238.062381 287.849495 
L 241.486814 283.035697 
L 244.911248 270.415741 
L 248.335681 104.40477 
L 251.760114 108.82826 
L 255.184548 268.724407 
L 258.608981 283.295903 
L 262.033414 287.068879 
L 265.457848 290.971958 
L 268.882281 293.574011 
L 272.306715 294.224525 
L 275.731148 295.525551 
L 279.155581 296.826577 
L 282.580015 296.176064 
L 286.004448 297.216885 
L 289.428881 297.867399 
L 292.853315 298.127604 
L 296.277748 296.696475 
L 299.702181 296.826577 
L 303.126615 297.867399 
L 306.551048 297.216885 
L 309.975481 298.257706 
L 313.399915 296.826577 
L 316.824348 297.607193 
L 320.248781 297.216885 
L 323.673215 297.997501 
L 327.097648 297.997501 
L 330.522082 298.648014 
L 333.946515 297.477091 
L 337.370948 298.90822 
L 340.795382 296.436269 
L 344.219815 298.127604 
L 347.644248 297.607193 
L 351.068682 298.257706 
L 354.493115 297.346988 
L 357.917548 298.387809 
L 361.341982 297.607193 
L 364.766415 298.127604 
L 368.190848 297.346988 
L 371.615282 298.517912 
L 375.039715 298.257706 
L 378.464148 298.387809 
L 381.888582 298.257706 
L 385.313015 297.737296 
L 388.737449 298.257706 
L 392.161882 298.127604 
L 395.586315 298.127604 
L 399.010749 298.648014 
L 402.435182 297.737296 
L 405.859615 297.997501 
L 409.284049 298.778117 
L 412.708482 298.648014 
L 416.132915 297.997501 
L 419.557349 298.778117 
L 422.981782 296.95668 
" clip-path="url(#pfb4d854bbe)" style="fill: none; stroke: #bcbd22; stroke-width: 1.5; stroke-linecap: square"/>
   </g>
   <g id="line2d_16">
    <path d="M 77.114013 297.997501 
L 80.538447 298.257706 
L 83.96288 297.867399 
L 87.387313 298.257706 
L 90.811747 298.257706 
L 94.23618 298.127604 
L 97.660614 296.826577 
L 101.085047 298.517912 
L 104.50948 298.387809 
L 107.933914 298.648014 
L 111.358347 296.826577 
L 114.78278 298.257706 
L 118.207214 298.90822 
L 121.631647 297.737296 
L 125.05608 297.607193 
L 128.480514 298.90822 
L 131.904947 297.607193 
L 135.32938 298.778117 
L 138.753814 297.346988 
L 142.178247 297.346988 
L 145.60268 298.517912 
L 149.027114 298.387809 
L 152.451547 298.778117 
L 155.875981 298.517912 
L 159.300414 298.517912 
L 162.724847 298.648014 
L 166.149281 297.477091 
L 169.573714 298.778117 
L 172.998147 296.95668 
L 176.422581 298.387809 
L 179.847014 297.997501 
L 183.271447 297.607193 
L 186.695881 297.346988 
L 190.120314 298.127604 
L 193.544747 297.867399 
L 196.969181 297.737296 
L 200.393614 298.127604 
L 203.818047 298.517912 
L 207.242481 297.867399 
L 210.666914 295.525551 
L 214.091348 297.867399 
L 217.515781 296.826577 
L 220.940214 296.826577 
L 224.364648 296.176064 
L 227.789081 293.964319 
L 231.213514 294.224525 
L 234.637948 292.403088 
L 238.062381 289.801035 
L 241.486814 284.466826 
L 244.911248 272.497383 
L 248.335681 103.624154 
L 251.760114 110.519594 
L 255.184548 273.147897 
L 258.608981 282.775492 
L 262.033414 289.150522 
L 265.457848 293.053601 
L 268.882281 294.094422 
L 272.306715 294.744935 
L 275.731148 295.655654 
L 279.155581 297.346988 
L 282.580015 297.477091 
L 286.004448 296.95668 
L 289.428881 297.737296 
L 292.853315 298.127604 
L 296.277748 297.737296 
L 299.702181 298.127604 
L 303.126615 297.086783 
L 306.551048 297.477091 
L 309.975481 298.257706 
L 313.399915 298.127604 
L 316.824348 297.867399 
L 320.248781 298.257706 
L 323.673215 298.517912 
L 327.097648 297.867399 
L 330.522082 297.867399 
L 333.946515 297.737296 
L 337.370948 298.648014 
L 340.795382 297.477091 
L 344.219815 297.477091 
L 347.644248 298.127604 
L 351.068682 298.648014 
L 354.493115 298.648014 
L 357.917548 298.648014 
L 361.341982 298.387809 
L 364.766415 297.997501 
L 368.190848 297.477091 
L 371.615282 297.216885 
L 375.039715 298.127604 
L 378.464148 297.867399 
L 381.888582 297.867399 
L 385.313015 298.257706 
L 388.737449 296.826577 
L 392.161882 298.648014 
L 395.586315 298.648014 
L 399.010749 297.867399 
L 402.435182 296.696475 
L 405.859615 297.477091 
L 409.284049 298.648014 
L 412.708482 298.778117 
L 416.132915 297.346988 
L 419.557349 298.387809 
L 422.981782 297.867399 
" clip-path="url(#pfb4d854bbe)" style="fill: none; stroke: #9467bd; stroke-width: 1.5; stroke-linecap: square"/>
   </g>
   <g id="patch_3">
    <path d="M 59.820625 299.518125 
L 59.820625 22.318125 
" style="fill: none; stroke: #000000; stroke-width: 0.8; stroke-linejoin: miter; stroke-linecap: square"/>
   </g>
   <g id="patch_4">
    <path d="M 440.27517 299.518125 
L 440.27517 22.318125 
" style="fill: none; stroke: #000000; stroke-width: 0.8; stroke-linejoin: miter; stroke-linecap: square"/>
   </g>
   <g id="patch_5">
    <path d="M 59.820625 299.518125 
L 440.27517 299.518125 
" style="fill: none; stroke: #000000; stroke-width: 0.8; stroke-linejoin: miter; stroke-linecap: square"/>
   </g>
   <g id="patch_6">
    <path d="M 59.820625 22.318125 
L 440.27517 22.318125 
" style="fill: none; stroke: #000000; stroke-width: 0.8; stroke-linejoin: miter; stroke-linecap: square"/>
   </g>
   <g id="text_15">
    <!-- 2 uM Ca injection diam 2.4 um -->
    <g transform="translate(158.137273 16.318125)scale(0.12 -0.12)">
     <defs>
      <path id="DejaVuSans-6a" d="M 603 3500 
L 1178 3500 
L 1178 -63 
Q 1178 -731 923 -1031 
Q 669 -1331 103 -1331 
L -116 -1331 
L -116 -844 
L 38 -844 
Q 366 -844 484 -692 
Q 603 -541 603 -63 
L 603 3500 
z
M 603 4863 
L 1178 4863 
L 1178 4134 
L 603 4134 
L 603 4863 
z
" transform="scale(0.015625)"/>
      <path id="DejaVuSans-64" d="M 2906 2969 
L 2906 4863 
L 3481 4863 
L 3481 0 
L 2906 0 
L 2906 525 
Q 2725 213 2448 61 
Q 2172 -91 1784 -91 
Q 1150 -91 751 415 
Q 353 922 353 1747 
Q 353 2572 751 3078 
Q 1150 3584 1784 3584 
Q 2172 3584 2448 3432 
Q 2725 3281 2906 2969 
z
M 947 1747 
Q 947 1113 1208 752 
Q 1469 391 1925 391 
Q 2381 391 2643 752 
Q 2906 1113 2906 1747 
Q 2906 2381 2643 2742 
Q 2381 3103 1925 3103 
Q 1469 3103 1208 2742 
Q 947 2381 947 1747 
z
" transform="scale(0.015625)"/>
     </defs>
     <use xlink:href="#DejaVuSans-32"/>
     <use xlink:href="#DejaVuSans-20" x="63.623047"/>
     <use xlink:href="#DejaVuSans-75" x="95.410156"/>
     <use xlink:href="#DejaVuSans-4d" x="158.789062"/>
     <use xlink:href="#DejaVuSans-20" x="245.068359"/>
     <use xlink:href="#DejaVuSans-43" x="276.855469"/>
     <use xlink:href="#DejaVuSans-61" x="346.679688"/>
     <use xlink:href="#DejaVuSans-20" x="407.958984"/>
     <use xlink:href="#DejaVuSans-69" x="439.746094"/>
     <use xlink:href="#DejaVuSans-6e" x="467.529297"/>
     <use xlink:href="#DejaVuSans-6a" x="530.908203"/>
     <use xlink:href="#DejaVuSans-65" x="558.691406"/>
     <use xlink:href="#DejaVuSans-63" x="620.214844"/>
     <use xlink:href="#DejaVuSans-74" x="675.195312"/>
     <use xlink:href="#DejaVuSans-69" x="714.404297"/>
     <use xlink:href="#DejaVuSans-6f" x="742.1875"/>
     <use xlink:href="#DejaVuSans-6e" x="803.369141"/>
     <use xlink:href="#DejaVuSans-20" x="866.748047"/>
     <use xlink:href="#DejaVuSans-64" x="898.535156"/>
     <use xlink:href="#DejaVuSans-69" x="962.011719"/>
     <use xlink:href="#DejaVuSans-61" x="989.794922"/>
     <use xlink:href="#DejaVuSans-6d" x="1051.074219"/>
     <use xlink:href="#DejaVuSans-20" x="1148.486328"/>
     <use xlink:href="#DejaVuSans-32" x="1180.273438"/>
     <use xlink:href="#DejaVuSans-2e" x="1243.896484"/>
     <use xlink:href="#DejaVuSans-34" x="1275.683594"/>
     <use xlink:href="#DejaVuSans-20" x="1339.306641"/>
     <use xlink:href="#DejaVuSans-75" x="1371.09375"/>
     <use xlink:href="#DejaVuSans-6d" x="1434.472656"/>
    </g>
   </g>
   <g id="legend_1">
    <g id="patch_7">
     <path d="M 270.390795 89.030625 
L 433.27517 89.030625 
Q 435.27517 89.030625 435.27517 87.030625 
L 435.27517 29.318125 
Q 435.27517 27.318125 433.27517 27.318125 
L 270.390795 27.318125 
Q 268.390795 27.318125 268.390795 29.318125 
L 268.390795 87.030625 
Q 268.390795 89.030625 270.390795 89.030625 
z
" style="fill: #ffffff; opacity: 0.8; stroke: #cccccc; stroke-linejoin: miter"/>
    </g>
    <g id="line2d_17">
     <path d="M 272.390795 35.416563 
L 282.390795 35.416563 
L 292.390795 35.416563 
" style="fill: none; stroke: #2ca02c; stroke-width: 1.5; stroke-linecap: square"/>
    </g>
    <g id="text_16">
     <!-- RyR dis-inh. -->
     <g transform="translate(300.390795 38.916563)scale(0.1 -0.1)">
      <defs>
       <path id="DejaVuSans-52" d="M 2841 2188 
Q 3044 2119 3236 1894 
Q 3428 1669 3622 1275 
L 4263 0 
L 3584 0 
L 2988 1197 
Q 2756 1666 2539 1819 
Q 2322 1972 1947 1972 
L 1259 1972 
L 1259 0 
L 628 0 
L 628 4666 
L 2053 4666 
Q 2853 4666 3247 4331 
Q 3641 3997 3641 3322 
Q 3641 2881 3436 2590 
Q 3231 2300 2841 2188 
z
M 1259 4147 
L 1259 2491 
L 2053 2491 
Q 2509 2491 2742 2702 
Q 2975 2913 2975 3322 
Q 2975 3731 2742 3939 
Q 2509 4147 2053 4147 
L 1259 4147 
z
" transform="scale(0.015625)"/>
       <path id="DejaVuSans-79" d="M 2059 -325 
Q 1816 -950 1584 -1140 
Q 1353 -1331 966 -1331 
L 506 -1331 
L 506 -850 
L 844 -850 
Q 1081 -850 1212 -737 
Q 1344 -625 1503 -206 
L 1606 56 
L 191 3500 
L 800 3500 
L 1894 763 
L 2988 3500 
L 3597 3500 
L 2059 -325 
z
" transform="scale(0.015625)"/>
       <path id="DejaVuSans-2d" d="M 313 2009 
L 1997 2009 
L 1997 1497 
L 313 1497 
L 313 2009 
z
" transform="scale(0.015625)"/>
       <path id="DejaVuSans-68" d="M 3513 2113 
L 3513 0 
L 2938 0 
L 2938 2094 
Q 2938 2591 2744 2837 
Q 2550 3084 2163 3084 
Q 1697 3084 1428 2787 
Q 1159 2491 1159 1978 
L 1159 0 
L 581 0 
L 581 4863 
L 1159 4863 
L 1159 2956 
Q 1366 3272 1645 3428 
Q 1925 3584 2291 3584 
Q 2894 3584 3203 3211 
Q 3513 2838 3513 2113 
z
" transform="scale(0.015625)"/>
      </defs>
      <use xlink:href="#DejaVuSans-52"/>
      <use xlink:href="#DejaVuSans-79" x="63.982422"/>
      <use xlink:href="#DejaVuSans-52" x="123.162109"/>
      <use xlink:href="#DejaVuSans-20" x="192.644531"/>
      <use xlink:href="#DejaVuSans-64" x="224.431641"/>
      <use xlink:href="#DejaVuSans-69" x="287.908203"/>
      <use xlink:href="#DejaVuSans-73" x="315.691406"/>
      <use xlink:href="#DejaVuSans-2d" x="367.791016"/>
      <use xlink:href="#DejaVuSans-69" x="403.875"/>
      <use xlink:href="#DejaVuSans-6e" x="431.658203"/>
      <use xlink:href="#DejaVuSans-68" x="495.037109"/>
      <use xlink:href="#DejaVuSans-2e" x="558.416016"/>
     </g>
    </g>
    <g id="line2d_18">
     <path d="M 272.390795 50.094688 
L 282.390795 50.094688 
L 292.390795 50.094688 
" style="fill: none; stroke: #e377c2; stroke-width: 1.5; stroke-linecap: square"/>
    </g>
    <g id="text_17">
     <!-- RyR over-exp. and dis-inh. -->
     <g transform="translate(300.390795 53.594688)scale(0.1 -0.1)">
      <defs>
       <path id="DejaVuSans-76" d="M 191 3500 
L 800 3500 
L 1894 563 
L 2988 3500 
L 3597 3500 
L 2284 0 
L 1503 0 
L 191 3500 
z
" transform="scale(0.015625)"/>
       <path id="DejaVuSans-78" d="M 3513 3500 
L 2247 1797 
L 3578 0 
L 2900 0 
L 1881 1375 
L 863 0 
L 184 0 
L 1544 1831 
L 300 3500 
L 978 3500 
L 1906 2253 
L 2834 3500 
L 3513 3500 
z
" transform="scale(0.015625)"/>
       <path id="DejaVuSans-70" d="M 1159 525 
L 1159 -1331 
L 581 -1331 
L 581 3500 
L 1159 3500 
L 1159 2969 
Q 1341 3281 1617 3432 
Q 1894 3584 2278 3584 
Q 2916 3584 3314 3078 
Q 3713 2572 3713 1747 
Q 3713 922 3314 415 
Q 2916 -91 2278 -91 
Q 1894 -91 1617 61 
Q 1341 213 1159 525 
z
M 3116 1747 
Q 3116 2381 2855 2742 
Q 2594 3103 2138 3103 
Q 1681 3103 1420 2742 
Q 1159 2381 1159 1747 
Q 1159 1113 1420 752 
Q 1681 391 2138 391 
Q 2594 391 2855 752 
Q 3116 1113 3116 1747 
z
" transform="scale(0.015625)"/>
      </defs>
      <use xlink:href="#DejaVuSans-52"/>
      <use xlink:href="#DejaVuSans-79" x="63.982422"/>
      <use xlink:href="#DejaVuSans-52" x="123.162109"/>
      <use xlink:href="#DejaVuSans-20" x="192.644531"/>
      <use xlink:href="#DejaVuSans-6f" x="224.431641"/>
      <use xlink:href="#DejaVuSans-76" x="285.613281"/>
      <use xlink:href="#DejaVuSans-65" x="344.792969"/>
      <use xlink:href="#DejaVuSans-72" x="406.316406"/>
      <use xlink:href="#DejaVuSans-2d" x="441.054688"/>
      <use xlink:href="#DejaVuSans-65" x="477.138672"/>
      <use xlink:href="#DejaVuSans-78" x="536.912109"/>
      <use xlink:href="#DejaVuSans-70" x="596.091797"/>
      <use xlink:href="#DejaVuSans-2e" x="659.568359"/>
      <use xlink:href="#DejaVuSans-20" x="691.355469"/>
      <use xlink:href="#DejaVuSans-61" x="723.142578"/>
      <use xlink:href="#DejaVuSans-6e" x="784.421875"/>
      <use xlink:href="#DejaVuSans-64" x="847.800781"/>
      <use xlink:href="#DejaVuSans-20" x="911.277344"/>
      <use xlink:href="#DejaVuSans-64" x="943.064453"/>
      <use xlink:href="#DejaVuSans-69" x="1006.541016"/>
      <use xlink:href="#DejaVuSans-73" x="1034.324219"/>
      <use xlink:href="#DejaVuSans-2d" x="1086.423828"/>
      <use xlink:href="#DejaVuSans-69" x="1122.507812"/>
      <use xlink:href="#DejaVuSans-6e" x="1150.291016"/>
      <use xlink:href="#DejaVuSans-68" x="1213.669922"/>
      <use xlink:href="#DejaVuSans-2e" x="1277.048828"/>
     </g>
    </g>
    <g id="line2d_19">
     <path d="M 272.390795 64.772813 
L 282.390795 64.772813 
L 292.390795 64.772813 
" style="fill: none; stroke: #bcbd22; stroke-width: 1.5; stroke-linecap: square"/>
    </g>
    <g id="text_18">
     <!-- ctrl -->
     <g transform="translate(300.390795 68.272813)scale(0.1 -0.1)">
      <use xlink:href="#DejaVuSans-63"/>
      <use xlink:href="#DejaVuSans-74" x="54.980469"/>
      <use xlink:href="#DejaVuSans-72" x="94.189453"/>
      <use xlink:href="#DejaVuSans-6c" x="135.302734"/>
     </g>
    </g>
    <g id="line2d_20">
     <path d="M 272.390795 79.450938 
L 282.390795 79.450938 
L 292.390795 79.450938 
" style="fill: none; stroke: #9467bd; stroke-width: 1.5; stroke-linecap: square"/>
    </g>
    <g id="text_19">
     <!-- RyR over-exp. -->
     <g transform="translate(300.390795 82.950938)scale(0.1 -0.1)">
      <use xlink:href="#DejaVuSans-52"/>
      <use xlink:href="#DejaVuSans-79" x="63.982422"/>
      <use xlink:href="#DejaVuSans-52" x="123.162109"/>
      <use xlink:href="#DejaVuSans-20" x="192.644531"/>
      <use xlink:href="#DejaVuSans-6f" x="224.431641"/>
      <use xlink:href="#DejaVuSans-76" x="285.613281"/>
      <use xlink:href="#DejaVuSans-65" x="344.792969"/>
      <use xlink:href="#DejaVuSans-72" x="406.316406"/>
      <use xlink:href="#DejaVuSans-2d" x="441.054688"/>
      <use xlink:href="#DejaVuSans-65" x="477.138672"/>
      <use xlink:href="#DejaVuSans-78" x="536.912109"/>
      <use xlink:href="#DejaVuSans-70" x="596.091797"/>
      <use xlink:href="#DejaVuSans-2e" x="659.568359"/>
     </g>
    </g>
   </g>
  </g>
  <g id="axes_2">
   <g id="patch_8">
    <path d="M 516.36608 299.518125 
L 896.820625 299.518125 
L 896.820625 22.318125 
L 516.36608 22.318125 
z
" style="fill: #ffffff"/>
   </g>
   <g id="matplotlib.axis_3">
    <g id="xtick_6">
     <g id="line2d_21">
      <g>
       <use xlink:href="#m22f88941b1" x="569.616018" y="299.518125" style="stroke: #000000; stroke-width: 0.8"/>
      </g>
     </g>
     <g id="text_20">
      <!-- −20 -->
      <g transform="translate(554.842737 317.155938)scale(0.14 -0.14)">
       <use xlink:href="#DejaVuSans-2212"/>
       <use xlink:href="#DejaVuSans-32" x="83.789062"/>
       <use xlink:href="#DejaVuSans-30" x="147.412109"/>
      </g>
     </g>
    </g>
    <g id="xtick_7">
     <g id="line2d_22">
      <g>
       <use xlink:href="#m22f88941b1" x="638.104685" y="299.518125" style="stroke: #000000; stroke-width: 0.8"/>
      </g>
     </g>
     <g id="text_21">
      <!-- −10 -->
      <g transform="translate(623.331404 317.155938)scale(0.14 -0.14)">
       <use xlink:href="#DejaVuSans-2212"/>
       <use xlink:href="#DejaVuSans-31" x="83.789062"/>
       <use xlink:href="#DejaVuSans-30" x="147.412109"/>
      </g>
     </g>
    </g>
    <g id="xtick_8">
     <g id="line2d_23">
      <g>
       <use xlink:href="#m22f88941b1" x="706.593352" y="299.518125" style="stroke: #000000; stroke-width: 0.8"/>
      </g>
     </g>
     <g id="text_22">
      <!-- 0 -->
      <g transform="translate(702.139602 317.155938)scale(0.14 -0.14)">
       <use xlink:href="#DejaVuSans-30"/>
      </g>
     </g>
    </g>
    <g id="xtick_9">
     <g id="line2d_24">
      <g>
       <use xlink:href="#m22f88941b1" x="775.082019" y="299.518125" style="stroke: #000000; stroke-width: 0.8"/>
      </g>
     </g>
     <g id="text_23">
      <!-- 10 -->
      <g transform="translate(766.174519 317.155938)scale(0.14 -0.14)">
       <use xlink:href="#DejaVuSans-31"/>
       <use xlink:href="#DejaVuSans-30" x="63.623047"/>
      </g>
     </g>
    </g>
    <g id="xtick_10">
     <g id="line2d_25">
      <g>
       <use xlink:href="#m22f88941b1" x="843.570686" y="299.518125" style="stroke: #000000; stroke-width: 0.8"/>
      </g>
     </g>
     <g id="text_24">
      <!-- 20 -->
      <g transform="translate(834.663186 317.155938)scale(0.14 -0.14)">
       <use xlink:href="#DejaVuSans-32"/>
       <use xlink:href="#DejaVuSans-30" x="63.623047"/>
      </g>
     </g>
    </g>
    <g id="text_25">
     <!-- Distance from stim [um] -->
     <g transform="translate(584.538665 339.264375)scale(0.2 -0.2)">
      <use xlink:href="#DejaVuSans-44"/>
      <use xlink:href="#DejaVuSans-69" x="77.001953"/>
      <use xlink:href="#DejaVuSans-73" x="104.785156"/>
      <use xlink:href="#DejaVuSans-74" x="156.884766"/>
      <use xlink:href="#DejaVuSans-61" x="196.09375"/>
      <use xlink:href="#DejaVuSans-6e" x="257.373047"/>
      <use xlink:href="#DejaVuSans-63" x="320.751953"/>
      <use xlink:href="#DejaVuSans-65" x="375.732422"/>
      <use xlink:href="#DejaVuSans-20" x="437.255859"/>
      <use xlink:href="#DejaVuSans-66" x="469.042969"/>
      <use xlink:href="#DejaVuSans-72" x="504.248047"/>
      <use xlink:href="#DejaVuSans-6f" x="543.111328"/>
      <use xlink:href="#DejaVuSans-6d" x="604.292969"/>
      <use xlink:href="#DejaVuSans-20" x="701.705078"/>
      <use xlink:href="#DejaVuSans-73" x="733.492188"/>
      <use xlink:href="#DejaVuSans-74" x="785.591797"/>
      <use xlink:href="#DejaVuSans-69" x="824.800781"/>
      <use xlink:href="#DejaVuSans-6d" x="852.583984"/>
      <use xlink:href="#DejaVuSans-20" x="949.996094"/>
      <use xlink:href="#DejaVuSans-5b" x="981.783203"/>
      <use xlink:href="#DejaVuSans-75" x="1020.796875"/>
      <use xlink:href="#DejaVuSans-6d" x="1084.175781"/>
      <use xlink:href="#DejaVuSans-5d" x="1181.587891"/>
     </g>
    </g>
   </g>
   <g id="matplotlib.axis_4"/>
   <g id="line2d_26">
    <path d="M 533.659468 301.128275 
L 537.083901 300.086909 
L 540.508335 300.781153 
L 543.932768 300.582797 
L 547.357201 300.285264 
L 550.781635 300.731564 
L 554.206068 300.48362 
L 557.630501 299.987731 
L 561.054935 300.681975 
L 564.479368 300.830742 
L 567.903801 300.235675 
L 571.328235 300.186086 
L 574.752668 300.235675 
L 578.177102 300.48362 
L 581.601535 300.681975 
L 585.025968 300.086909 
L 588.450402 300.731564 
L 591.874835 299.987731 
L 595.299268 300.48362 
L 598.723702 300.086909 
L 602.148135 300.03732 
L 605.572568 299.194309 
L 608.997002 299.789376 
L 612.421435 300.434031 
L 615.845868 300.086909 
L 619.270302 299.491842 
L 622.694735 299.541431 
L 626.119168 298.500065 
L 629.543602 298.946365 
L 632.968035 299.640609 
L 636.392469 299.392665 
L 639.816902 298.995954 
L 643.241335 298.698421 
L 646.665769 298.252121 
L 650.090202 298.252121 
L 653.514635 298.252121 
L 656.939069 297.805821 
L 660.363502 297.458699 
L 663.787935 296.665277 
L 667.212369 297.359521 
L 670.636802 295.772678 
L 674.061235 295.971033 
L 677.485669 294.037068 
L 680.910102 294.235423 
L 684.334535 294.136245 
L 687.758969 291.359269 
L 691.183402 290.516259 
L 694.607836 289.028593 
L 698.032269 283.821763 
L 701.456702 262.895263 
L 704.881136 94.888204 
L 708.305569 101.235579 
L 711.730002 268.002916 
L 715.154436 283.127518 
L 718.578869 287.590516 
L 722.003302 287.83846 
L 725.427736 290.665025 
L 728.852169 292.351046 
L 732.276602 294.681723 
L 735.701036 295.822267 
L 739.125469 296.367744 
L 742.549902 296.913222 
L 745.974336 297.111577 
L 749.398769 297.85541 
L 752.823203 298.351299 
L 756.247636 298.004177 
L 759.672069 298.400887 
L 763.096503 298.797598 
L 766.520936 298.648832 
L 769.945369 298.995954 
L 773.369803 299.442254 
L 776.794236 299.491842 
L 780.218669 298.995954 
L 783.643103 299.392665 
L 787.067536 299.491842 
L 790.491969 299.392665 
L 793.916403 298.896776 
L 797.340836 299.59102 
L 800.765269 299.442254 
L 804.189703 299.343076 
L 807.614136 300.03732 
L 811.03857 300.334853 
L 814.463003 300.235675 
L 817.887436 299.938142 
L 821.31187 300.434031 
L 824.736303 300.731564 
L 828.160736 300.334853 
L 831.58517 300.03732 
L 835.009603 300.533208 
L 838.434036 300.681975 
L 841.85847 300.731564 
L 845.282903 300.434031 
L 848.707336 300.582797 
L 852.13177 299.888553 
L 855.556203 300.830742 
L 858.980636 300.979508 
L 862.40507 300.434031 
L 865.829503 300.929919 
L 869.253937 300.48362 
L 872.67837 300.929919 
L 876.102803 300.334853 
L 879.527237 300.582797 
" clip-path="url(#p0c25156cb7)" style="fill: none; stroke: #2ca02c; stroke-width: 1.5; stroke-linecap: square"/>
   </g>
   <g id="line2d_27">
    <path d="M 533.659468 299.739787 
L 537.083901 300.731564 
L 540.508335 299.888553 
L 543.932768 300.434031 
L 547.357201 300.03732 
L 550.781635 300.48362 
L 554.206068 300.384442 
L 557.630501 300.334853 
L 561.054935 298.797598 
L 564.479368 299.888553 
L 567.903801 299.739787 
L 571.328235 299.59102 
L 574.752668 298.599243 
L 578.177102 298.995954 
L 581.601535 298.351299 
L 585.025968 297.954588 
L 588.450402 296.615688 
L 591.874835 296.218978 
L 595.299268 295.078434 
L 598.723702 293.739535 
L 602.148135 292.549402 
L 605.572568 288.334349 
L 608.997002 288.681471 
L 612.421435 288.830237 
L 615.845868 283.127518 
L 619.270302 284.664773 
L 622.694735 281.937386 
L 626.119168 281.986975 
L 629.543602 280.945609 
L 632.968035 280.995197 
L 636.392469 277.176855 
L 639.816902 275.490834 
L 643.241335 276.383433 
L 646.665769 270.730303 
L 650.090202 273.854402 
L 653.514635 275.292479 
L 656.939069 272.565091 
L 660.363502 273.50728 
L 663.787935 270.978248 
L 667.212369 273.110569 
L 670.636802 273.358513 
L 674.061235 269.688937 
L 677.485669 270.87907 
L 680.910102 270.87907 
L 684.334535 271.573314 
L 687.758969 270.631126 
L 691.183402 272.16838 
L 694.607836 267.308672 
L 698.032269 266.267306 
L 701.456702 251.787359 
L 704.881136 80.408257 
L 708.305569 81.003324 
L 711.730002 254.961046 
L 715.154436 266.019362 
L 718.578869 269.242638 
L 722.003302 273.160158 
L 725.427736 271.573314 
L 728.852169 270.284004 
L 732.276602 272.317147 
L 735.701036 273.011391 
L 739.125469 268.796338 
L 742.549902 274.697412 
L 745.974336 274.151935 
L 749.398769 275.689189 
L 752.823203 275.441245 
L 756.247636 276.333845 
L 759.672069 278.366988 
L 763.096503 280.846431 
L 766.520936 282.284508 
L 769.945369 283.821763 
L 773.369803 284.416829 
L 776.794236 285.954084 
L 780.218669 288.135993 
L 783.643103 289.772426 
L 787.067536 289.028593 
L 790.491969 292.351046 
L 793.916403 294.285012 
L 797.340836 295.475145 
L 800.765269 296.169389 
L 804.189703 297.111577 
L 807.614136 298.30171 
L 811.03857 298.004177 
L 814.463003 298.748009 
L 817.887436 298.995954 
L 821.31187 298.549654 
L 824.736303 299.888553 
L 828.160736 299.491842 
L 831.58517 299.392665 
L 835.009603 299.789376 
L 838.434036 300.285264 
L 841.85847 300.235675 
L 845.282903 299.838964 
L 848.707336 300.48362 
L 852.13177 299.343076 
L 855.556203 300.03732 
L 858.980636 300.285264 
L 862.40507 300.48362 
L 865.829503 300.384442 
L 869.253937 300.384442 
L 872.67837 300.384442 
L 876.102803 300.136498 
L 879.527237 300.582797 
" clip-path="url(#p0c25156cb7)" style="fill: none; stroke: #e377c2; stroke-width: 1.5; stroke-linecap: square"/>
   </g>
   <g id="line2d_28">
    <path d="M 533.659468 300.929919 
L 537.083901 300.582797 
L 540.508335 300.88033 
L 543.932768 300.781153 
L 547.357201 301.029097 
L 550.781635 300.731564 
L 554.206068 300.48362 
L 557.630501 300.434031 
L 561.054935 301.177864 
L 564.479368 300.88033 
L 567.903801 301.078686 
L 571.328235 300.235675 
L 574.752668 301.029097 
L 578.177102 300.681975 
L 581.601535 300.632386 
L 585.025968 300.681975 
L 588.450402 300.285264 
L 591.874835 300.186086 
L 595.299268 300.434031 
L 598.723702 301.029097 
L 602.148135 300.235675 
L 605.572568 300.979508 
L 608.997002 300.48362 
L 612.421435 300.632386 
L 615.845868 300.731564 
L 619.270302 300.48362 
L 622.694735 300.48362 
L 626.119168 300.334853 
L 629.543602 300.235675 
L 632.968035 300.384442 
L 636.392469 299.987731 
L 639.816902 300.48362 
L 643.241335 299.739787 
L 646.665769 299.541431 
L 650.090202 300.48362 
L 653.514635 300.086909 
L 656.939069 299.690198 
L 660.363502 299.888553 
L 663.787935 299.838964 
L 667.212369 298.847187 
L 670.636802 298.748009 
L 674.061235 298.847187 
L 677.485669 298.30171 
L 680.910102 297.210755 
L 684.334535 296.863633 
L 687.758969 296.516511 
L 691.183402 294.929667 
L 694.607836 291.359269 
L 698.032269 288.086405 
L 701.456702 273.556868 
L 704.881136 114.971693 
L 708.305569 114.67416 
L 711.730002 274.647823 
L 715.154436 288.483115 
L 718.578869 292.797346 
L 722.003302 294.582545 
L 725.427736 295.921444 
L 728.852169 296.863633 
L 732.276602 298.004177 
L 735.701036 298.053765 
L 739.125469 298.599243 
L 742.549902 299.293487 
L 745.974336 299.392665 
L 749.398769 299.243898 
L 752.823203 299.392665 
L 756.247636 299.690198 
L 759.672069 299.938142 
L 763.096503 299.987731 
L 766.520936 299.442254 
L 769.945369 300.186086 
L 773.369803 300.681975 
L 776.794236 299.690198 
L 780.218669 300.384442 
L 783.643103 299.640609 
L 787.067536 299.293487 
L 790.491969 300.03732 
L 793.916403 300.632386 
L 797.340836 300.434031 
L 800.765269 300.632386 
L 804.189703 300.136498 
L 807.614136 300.434031 
L 811.03857 300.434031 
L 814.463003 300.632386 
L 817.887436 300.88033 
L 821.31187 300.731564 
L 824.736303 300.88033 
L 828.160736 300.285264 
L 831.58517 300.334853 
L 835.009603 300.086909 
L 838.434036 300.781153 
L 841.85847 300.186086 
L 845.282903 300.533208 
L 848.707336 300.830742 
L 852.13177 300.88033 
L 855.556203 300.929919 
L 858.980636 300.781153 
L 862.40507 300.582797 
L 865.829503 300.929919 
L 869.253937 300.582797 
L 872.67837 301.177864 
L 876.102803 300.48362 
L 879.527237 300.434031 
" clip-path="url(#p0c25156cb7)" style="fill: none; stroke: #bcbd22; stroke-width: 1.5; stroke-linecap: square"/>
   </g>
   <g id="line2d_29">
    <path d="M 533.659468 301.128275 
L 537.083901 300.731564 
L 540.508335 301.227453 
L 543.932768 301.277041 
L 547.357201 299.888553 
L 550.781635 301.425808 
L 554.206068 300.929919 
L 557.630501 300.781153 
L 561.054935 301.425808 
L 564.479368 301.376219 
L 567.903801 300.781153 
L 571.328235 300.334853 
L 574.752668 300.632386 
L 578.177102 301.277041 
L 581.601535 300.384442 
L 585.025968 300.533208 
L 588.450402 301.524986 
L 591.874835 301.425808 
L 595.299268 300.88033 
L 598.723702 301.078686 
L 602.148135 301.177864 
L 605.572568 300.582797 
L 608.997002 301.177864 
L 612.421435 300.929919 
L 615.845868 301.574575 
L 619.270302 301.078686 
L 622.694735 300.88033 
L 626.119168 300.632386 
L 629.543602 300.979508 
L 632.968035 301.128275 
L 636.392469 301.277041 
L 639.816902 301.475397 
L 643.241335 301.128275 
L 646.665769 301.177864 
L 650.090202 301.624163 
L 653.514635 301.425808 
L 656.939069 300.979508 
L 660.363502 300.731564 
L 663.787935 300.781153 
L 667.212369 300.632386 
L 670.636802 300.681975 
L 674.061235 300.186086 
L 677.485669 299.541431 
L 680.910102 298.847187 
L 684.334535 298.450476 
L 687.758969 296.962811 
L 691.183402 295.375967 
L 694.607836 293.442001 
L 698.032269 288.235171 
L 701.456702 274.003168 
L 704.881136 103.020778 
L 708.305569 86.35892 
L 711.730002 273.358513 
L 715.154436 289.177359 
L 718.578869 292.946113 
L 722.003302 296.020622 
L 725.427736 296.665277 
L 728.852169 298.698421 
L 732.276602 299.194309 
L 735.701036 299.293487 
L 739.125469 300.384442 
L 742.549902 300.88033 
L 745.974336 300.731564 
L 749.398769 300.533208 
L 752.823203 300.781153 
L 756.247636 300.781153 
L 759.672069 301.029097 
L 763.096503 300.979508 
L 766.520936 300.781153 
L 769.945369 300.781153 
L 773.369803 301.376219 
L 776.794236 300.582797 
L 780.218669 301.32663 
L 783.643103 301.128275 
L 787.067536 300.929919 
L 790.491969 299.938142 
L 793.916403 301.029097 
L 797.340836 300.681975 
L 800.765269 300.979508 
L 804.189703 300.929919 
L 807.614136 300.781153 
L 811.03857 301.227453 
L 814.463003 300.632386 
L 817.887436 301.128275 
L 821.31187 301.425808 
L 824.736303 300.88033 
L 828.160736 301.277041 
L 831.58517 301.177864 
L 835.009603 301.029097 
L 838.434036 300.979508 
L 841.85847 301.029097 
L 845.282903 299.938142 
L 848.707336 300.681975 
L 852.13177 301.078686 
L 855.556203 300.632386 
L 858.980636 300.830742 
L 862.40507 300.979508 
L 865.829503 300.235675 
L 869.253937 300.88033 
L 872.67837 300.929919 
L 876.102803 300.533208 
L 879.527237 301.029097 
" clip-path="url(#p0c25156cb7)" style="fill: none; stroke: #9467bd; stroke-width: 1.5; stroke-linecap: square"/>
   </g>
   <g id="patch_9">
    <path d="M 516.36608 299.518125 
L 516.36608 22.318125 
" style="fill: none; stroke: #000000; stroke-width: 0.8; stroke-linejoin: miter; stroke-linecap: square"/>
   </g>
   <g id="patch_10">
    <path d="M 896.820625 299.518125 
L 896.820625 22.318125 
" style="fill: none; stroke: #000000; stroke-width: 0.8; stroke-linejoin: miter; stroke-linecap: square"/>
   </g>
   <g id="patch_11">
    <path d="M 516.36608 299.518125 
L 896.820625 299.518125 
" style="fill: none; stroke: #000000; stroke-width: 0.8; stroke-linejoin: miter; stroke-linecap: square"/>
   </g>
   <g id="patch_12">
    <path d="M 516.36608 22.318125 
L 896.820625 22.318125 
" style="fill: none; stroke: #000000; stroke-width: 0.8; stroke-linejoin: miter; stroke-linecap: square"/>
   </g>
   <g id="text_26">
    <!-- 2 uM Ca injection diam 6.0 um -->
    <g transform="translate(614.682727 16.318125)scale(0.12 -0.12)">
     <use xlink:href="#DejaVuSans-32"/>
     <use xlink:href="#DejaVuSans-20" x="63.623047"/>
     <use xlink:href="#DejaVuSans-75" x="95.410156"/>
     <use xlink:href="#DejaVuSans-4d" x="158.789062"/>
     <use xlink:href="#DejaVuSans-20" x="245.068359"/>
     <use xlink:href="#DejaVuSans-43" x="276.855469"/>
     <use xlink:href="#DejaVuSans-61" x="346.679688"/>
     <use xlink:href="#DejaVuSans-20" x="407.958984"/>
     <use xlink:href="#DejaVuSans-69" x="439.746094"/>
     <use xlink:href="#DejaVuSans-6e" x="467.529297"/>
     <use xlink:href="#DejaVuSans-6a" x="530.908203"/>
     <use xlink:href="#DejaVuSans-65" x="558.691406"/>
     <use xlink:href="#DejaVuSans-63" x="620.214844"/>
     <use xlink:href="#DejaVuSans-74" x="675.195312"/>
     <use xlink:href="#DejaVuSans-69" x="714.404297"/>
     <use xlink:href="#DejaVuSans-6f" x="742.1875"/>
     <use xlink:href="#DejaVuSans-6e" x="803.369141"/>
     <use xlink:href="#DejaVuSans-20" x="866.748047"/>
     <use xlink:href="#DejaVuSans-64" x="898.535156"/>
     <use xlink:href="#DejaVuSans-69" x="962.011719"/>
     <use xlink:href="#DejaVuSans-61" x="989.794922"/>
     <use xlink:href="#DejaVuSans-6d" x="1051.074219"/>
     <use xlink:href="#DejaVuSans-20" x="1148.486328"/>
     <use xlink:href="#DejaVuSans-36" x="1180.273438"/>
     <use xlink:href="#DejaVuSans-2e" x="1243.896484"/>
     <use xlink:href="#DejaVuSans-30" x="1275.683594"/>
     <use xlink:href="#DejaVuSans-20" x="1339.306641"/>
     <use xlink:href="#DejaVuSans-75" x="1371.09375"/>
     <use xlink:href="#DejaVuSans-6d" x="1434.472656"/>
    </g>
   </g>
   <g id="legend_2">
    <g id="patch_13">
     <path d="M 726.93625 89.030625 
L 889.820625 89.030625 
Q 891.820625 89.030625 891.820625 87.030625 
L 891.820625 29.318125 
Q 891.820625 27.318125 889.820625 27.318125 
L 726.93625 27.318125 
Q 724.93625 27.318125 724.93625 29.318125 
L 724.93625 87.030625 
Q 724.93625 89.030625 726.93625 89.030625 
z
" style="fill: #ffffff; opacity: 0.8; stroke: #cccccc; stroke-linejoin: miter"/>
    </g>
    <g id="line2d_30">
     <path d="M 728.93625 35.416563 
L 738.93625 35.416563 
L 748.93625 35.416563 
" style="fill: none; stroke: #2ca02c; stroke-width: 1.5; stroke-linecap: square"/>
    </g>
    <g id="text_27">
     <!-- RyR dis-inh. -->
     <g transform="translate(756.93625 38.916563)scale(0.1 -0.1)">
      <use xlink:href="#DejaVuSans-52"/>
      <use xlink:href="#DejaVuSans-79" x="63.982422"/>
      <use xlink:href="#DejaVuSans-52" x="123.162109"/>
      <use xlink:href="#DejaVuSans-20" x="192.644531"/>
      <use xlink:href="#DejaVuSans-64" x="224.431641"/>
      <use xlink:href="#DejaVuSans-69" x="287.908203"/>
      <use xlink:href="#DejaVuSans-73" x="315.691406"/>
      <use xlink:href="#DejaVuSans-2d" x="367.791016"/>
      <use xlink:href="#DejaVuSans-69" x="403.875"/>
      <use xlink:href="#DejaVuSans-6e" x="431.658203"/>
      <use xlink:href="#DejaVuSans-68" x="495.037109"/>
      <use xlink:href="#DejaVuSans-2e" x="558.416016"/>
     </g>
    </g>
    <g id="line2d_31">
     <path d="M 728.93625 50.094688 
L 738.93625 50.094688 
L 748.93625 50.094688 
" style="fill: none; stroke: #e377c2; stroke-width: 1.5; stroke-linecap: square"/>
    </g>
    <g id="text_28">
     <!-- RyR over-exp. and dis-inh. -->
     <g transform="translate(756.93625 53.594688)scale(0.1 -0.1)">
      <use xlink:href="#DejaVuSans-52"/>
      <use xlink:href="#DejaVuSans-79" x="63.982422"/>
      <use xlink:href="#DejaVuSans-52" x="123.162109"/>
      <use xlink:href="#DejaVuSans-20" x="192.644531"/>
      <use xlink:href="#DejaVuSans-6f" x="224.431641"/>
      <use xlink:href="#DejaVuSans-76" x="285.613281"/>
      <use xlink:href="#DejaVuSans-65" x="344.792969"/>
      <use xlink:href="#DejaVuSans-72" x="406.316406"/>
      <use xlink:href="#DejaVuSans-2d" x="441.054688"/>
      <use xlink:href="#DejaVuSans-65" x="477.138672"/>
      <use xlink:href="#DejaVuSans-78" x="536.912109"/>
      <use xlink:href="#DejaVuSans-70" x="596.091797"/>
      <use xlink:href="#DejaVuSans-2e" x="659.568359"/>
      <use xlink:href="#DejaVuSans-20" x="691.355469"/>
      <use xlink:href="#DejaVuSans-61" x="723.142578"/>
      <use xlink:href="#DejaVuSans-6e" x="784.421875"/>
      <use xlink:href="#DejaVuSans-64" x="847.800781"/>
      <use xlink:href="#DejaVuSans-20" x="911.277344"/>
      <use xlink:href="#DejaVuSans-64" x="943.064453"/>
      <use xlink:href="#DejaVuSans-69" x="1006.541016"/>
      <use xlink:href="#DejaVuSans-73" x="1034.324219"/>
      <use xlink:href="#DejaVuSans-2d" x="1086.423828"/>
      <use xlink:href="#DejaVuSans-69" x="1122.507812"/>
      <use xlink:href="#DejaVuSans-6e" x="1150.291016"/>
      <use xlink:href="#DejaVuSans-68" x="1213.669922"/>
      <use xlink:href="#DejaVuSans-2e" x="1277.048828"/>
     </g>
    </g>
    <g id="line2d_32">
     <path d="M 728.93625 64.772813 
L 738.93625 64.772813 
L 748.93625 64.772813 
" style="fill: none; stroke: #bcbd22; stroke-width: 1.5; stroke-linecap: square"/>
    </g>
    <g id="text_29">
     <!-- ctrl -->
     <g transform="translate(756.93625 68.272813)scale(0.1 -0.1)">
      <use xlink:href="#DejaVuSans-63"/>
      <use xlink:href="#DejaVuSans-74" x="54.980469"/>
      <use xlink:href="#DejaVuSans-72" x="94.189453"/>
      <use xlink:href="#DejaVuSans-6c" x="135.302734"/>
     </g>
    </g>
    <g id="line2d_33">
     <path d="M 728.93625 79.450938 
L 738.93625 79.450938 
L 748.93625 79.450938 
" style="fill: none; stroke: #9467bd; stroke-width: 1.5; stroke-linecap: square"/>
    </g>
    <g id="text_30">
     <!-- RyR over-exp. -->
     <g transform="translate(756.93625 82.950938)scale(0.1 -0.1)">
      <use xlink:href="#DejaVuSans-52"/>
      <use xlink:href="#DejaVuSans-79" x="63.982422"/>
      <use xlink:href="#DejaVuSans-52" x="123.162109"/>
      <use xlink:href="#DejaVuSans-20" x="192.644531"/>
      <use xlink:href="#DejaVuSans-6f" x="224.431641"/>
      <use xlink:href="#DejaVuSans-76" x="285.613281"/>
      <use xlink:href="#DejaVuSans-65" x="344.792969"/>
      <use xlink:href="#DejaVuSans-72" x="406.316406"/>
      <use xlink:href="#DejaVuSans-2d" x="441.054688"/>
      <use xlink:href="#DejaVuSans-65" x="477.138672"/>
      <use xlink:href="#DejaVuSans-78" x="536.912109"/>
      <use xlink:href="#DejaVuSans-70" x="596.091797"/>
      <use xlink:href="#DejaVuSans-2e" x="659.568359"/>
     </g>
    </g>
   </g>
  </g>
 </g>
 <defs>
  <clipPath id="pfb4d854bbe">
   <rect x="59.820625" y="22.318125" width="380.454545" height="277.2"/>
  </clipPath>
  <clipPath id="p0c25156cb7">
   <rect x="516.36608" y="22.318125" width="380.454545" height="277.2"/>
  </clipPath>
 </defs>
</svg>
