<?xml version="1.0" encoding="utf-8" standalone="no"?>
<!DOCTYPE svg PUBLIC "-//W3C//DTD SVG 1.1//EN"
  "http://www.w3.org/Graphics/SVG/1.1/DTD/svg11.dtd">
<svg xmlns:xlink="http://www.w3.org/1999/xlink" width="904.020625pt" height="350.62375pt" viewBox="0 0 904.020625 350.62375" xmlns="http://www.w3.org/2000/svg" version="1.1">
 <metadata>
  <rdf:RDF xmlns:dc="http://purl.org/dc/elements/1.1/" xmlns:cc="http://creativecommons.org/ns#" xmlns:rdf="http://www.w3.org/1999/02/22-rdf-syntax-ns#">
   <cc:Work>
    <dc:type rdf:resource="http://purl.org/dc/dcmitype/StillImage"/>
    <dc:date>2023-09-18T14:38:48.220645</dc:date>
    <dc:format>image/svg+xml</dc:format>
    <dc:creator>
     <cc:Agent>
      <dc:title>Matplotlib v3.5.1, https://matplotlib.org/</dc:title>
     </cc:Agent>
    </dc:creator>
   </cc:Work>
  </rdf:RDF>
 </metadata>
 <defs>
  <style type="text/css">*{stroke-linejoin: round; stroke-linecap: butt}</style>
 </defs>
 <g id="figure_1">
  <g id="patch_1">
   <path d="M 0 350.62375 
L 904.020625 350.62375 
L 904.020625 0 
L 0 0 
z
" style="fill: #ffffff"/>
  </g>
  <g id="axes_1">
   <g id="patch_2">
    <path d="M 59.820625 299.518125 
L 305.997096 299.518125 
L 305.997096 22.318125 
L 59.820625 22.318125 
z
" style="fill: #ffffff"/>
   </g>
   <g id="matplotlib.axis_1">
    <g id="xtick_1">
     <g id="line2d_1">
      <defs>
       <path id="m3b6be0b88d" d="M 0 0 
L 0 3.5 
" style="stroke: #000000; stroke-width: 0.8"/>
      </defs>
      <g>
       <use xlink:href="#m3b6be0b88d" x="94.276468" y="299.518125" style="stroke: #000000; stroke-width: 0.8"/>
      </g>
     </g>
     <g id="text_1">
      <!-- −20 -->
      <g transform="translate(79.503186 317.155938)scale(0.14 -0.14)">
       <defs>
        <path id="DejaVuSans-2212" d="M 678 2272 
L 4684 2272 
L 4684 1741 
L 678 1741 
L 678 2272 
z
" transform="scale(0.015625)"/>
        <path id="DejaVuSans-32" d="M 1228 531 
L 3431 531 
L 3431 0 
L 469 0 
L 469 531 
Q 828 903 1448 1529 
Q 2069 2156 2228 2338 
Q 2531 2678 2651 2914 
Q 2772 3150 2772 3378 
Q 2772 3750 2511 3984 
Q 2250 4219 1831 4219 
Q 1534 4219 1204 4116 
Q 875 4013 500 3803 
L 500 4441 
Q 881 4594 1212 4672 
Q 1544 4750 1819 4750 
Q 2544 4750 2975 4387 
Q 3406 4025 3406 3419 
Q 3406 3131 3298 2873 
Q 3191 2616 2906 2266 
Q 2828 2175 2409 1742 
Q 1991 1309 1228 531 
z
" transform="scale(0.015625)"/>
        <path id="DejaVuSans-30" d="M 2034 4250 
Q 1547 4250 1301 3770 
Q 1056 3291 1056 2328 
Q 1056 1369 1301 889 
Q 1547 409 2034 409 
Q 2525 409 2770 889 
Q 3016 1369 3016 2328 
Q 3016 3291 2770 3770 
Q 2525 4250 2034 4250 
z
M 2034 4750 
Q 2819 4750 3233 4129 
Q 3647 3509 3647 2328 
Q 3647 1150 3233 529 
Q 2819 -91 2034 -91 
Q 1250 -91 836 529 
Q 422 1150 422 2328 
Q 422 3509 836 4129 
Q 1250 4750 2034 4750 
z
" transform="scale(0.015625)"/>
       </defs>
       <use xlink:href="#DejaVuSans-2212"/>
       <use xlink:href="#DejaVuSans-32" x="83.789062"/>
       <use xlink:href="#DejaVuSans-30" x="147.412109"/>
      </g>
     </g>
    </g>
    <g id="xtick_2">
     <g id="line2d_2">
      <g>
       <use xlink:href="#m3b6be0b88d" x="182.90886" y="299.518125" style="stroke: #000000; stroke-width: 0.8"/>
      </g>
     </g>
     <g id="text_2">
      <!-- 0 -->
      <g transform="translate(178.45511 317.155938)scale(0.14 -0.14)">
       <use xlink:href="#DejaVuSans-30"/>
      </g>
     </g>
    </g>
    <g id="xtick_3">
     <g id="line2d_3">
      <g>
       <use xlink:href="#m3b6be0b88d" x="271.541253" y="299.518125" style="stroke: #000000; stroke-width: 0.8"/>
      </g>
     </g>
     <g id="text_3">
      <!-- 20 -->
      <g transform="translate(262.633753 317.155938)scale(0.14 -0.14)">
       <use xlink:href="#DejaVuSans-32"/>
       <use xlink:href="#DejaVuSans-30" x="63.623047"/>
      </g>
     </g>
    </g>
    <g id="text_4">
     <!-- Distance from stim [um] -->
     <g transform="translate(60.854173 339.264375)scale(0.2 -0.2)">
      <defs>
       <path id="DejaVuSans-44" d="M 1259 4147 
L 1259 519 
L 2022 519 
Q 2988 519 3436 956 
Q 3884 1394 3884 2338 
Q 3884 3275 3436 3711 
Q 2988 4147 2022 4147 
L 1259 4147 
z
M 628 4666 
L 1925 4666 
Q 3281 4666 3915 4102 
Q 4550 3538 4550 2338 
Q 4550 1131 3912 565 
Q 3275 0 1925 0 
L 628 0 
L 628 4666 
z
" transform="scale(0.015625)"/>
       <path id="DejaVuSans-69" d="M 603 3500 
L 1178 3500 
L 1178 0 
L 603 0 
L 603 3500 
z
M 603 4863 
L 1178 4863 
L 1178 4134 
L 603 4134 
L 603 4863 
z
" transform="scale(0.015625)"/>
       <path id="DejaVuSans-73" d="M 2834 3397 
L 2834 2853 
Q 2591 2978 2328 3040 
Q 2066 3103 1784 3103 
Q 1356 3103 1142 2972 
Q 928 2841 928 2578 
Q 928 2378 1081 2264 
Q 1234 2150 1697 2047 
L 1894 2003 
Q 2506 1872 2764 1633 
Q 3022 1394 3022 966 
Q 3022 478 2636 193 
Q 2250 -91 1575 -91 
Q 1294 -91 989 -36 
Q 684 19 347 128 
L 347 722 
Q 666 556 975 473 
Q 1284 391 1588 391 
Q 1994 391 2212 530 
Q 2431 669 2431 922 
Q 2431 1156 2273 1281 
Q 2116 1406 1581 1522 
L 1381 1569 
Q 847 1681 609 1914 
Q 372 2147 372 2553 
Q 372 3047 722 3315 
Q 1072 3584 1716 3584 
Q 2034 3584 2315 3537 
Q 2597 3491 2834 3397 
z
" transform="scale(0.015625)"/>
       <path id="DejaVuSans-74" d="M 1172 4494 
L 1172 3500 
L 2356 3500 
L 2356 3053 
L 1172 3053 
L 1172 1153 
Q 1172 725 1289 603 
Q 1406 481 1766 481 
L 2356 481 
L 2356 0 
L 1766 0 
Q 1100 0 847 248 
Q 594 497 594 1153 
L 594 3053 
L 172 3053 
L 172 3500 
L 594 3500 
L 594 4494 
L 1172 4494 
z
" transform="scale(0.015625)"/>
       <path id="DejaVuSans-61" d="M 2194 1759 
Q 1497 1759 1228 1600 
Q 959 1441 959 1056 
Q 959 750 1161 570 
Q 1363 391 1709 391 
Q 2188 391 2477 730 
Q 2766 1069 2766 1631 
L 2766 1759 
L 2194 1759 
z
M 3341 1997 
L 3341 0 
L 2766 0 
L 2766 531 
Q 2569 213 2275 61 
Q 1981 -91 1556 -91 
Q 1019 -91 701 211 
Q 384 513 384 1019 
Q 384 1609 779 1909 
Q 1175 2209 1959 2209 
L 2766 2209 
L 2766 2266 
Q 2766 2663 2505 2880 
Q 2244 3097 1772 3097 
Q 1472 3097 1187 3025 
Q 903 2953 641 2809 
L 641 3341 
Q 956 3463 1253 3523 
Q 1550 3584 1831 3584 
Q 2591 3584 2966 3190 
Q 3341 2797 3341 1997 
z
" transform="scale(0.015625)"/>
       <path id="DejaVuSans-6e" d="M 3513 2113 
L 3513 0 
L 2938 0 
L 2938 2094 
Q 2938 2591 2744 2837 
Q 2550 3084 2163 3084 
Q 1697 3084 1428 2787 
Q 1159 2491 1159 1978 
L 1159 0 
L 581 0 
L 581 3500 
L 1159 3500 
L 1159 2956 
Q 1366 3272 1645 3428 
Q 1925 3584 2291 3584 
Q 2894 3584 3203 3211 
Q 3513 2838 3513 2113 
z
" transform="scale(0.015625)"/>
       <path id="DejaVuSans-63" d="M 3122 3366 
L 3122 2828 
Q 2878 2963 2633 3030 
Q 2388 3097 2138 3097 
Q 1578 3097 1268 2742 
Q 959 2388 959 1747 
Q 959 1106 1268 751 
Q 1578 397 2138 397 
Q 2388 397 2633 464 
Q 2878 531 3122 666 
L 3122 134 
Q 2881 22 2623 -34 
Q 2366 -91 2075 -91 
Q 1284 -91 818 406 
Q 353 903 353 1747 
Q 353 2603 823 3093 
Q 1294 3584 2113 3584 
Q 2378 3584 2631 3529 
Q 2884 3475 3122 3366 
z
" transform="scale(0.015625)"/>
       <path id="DejaVuSans-65" d="M 3597 1894 
L 3597 1613 
L 953 1613 
Q 991 1019 1311 708 
Q 1631 397 2203 397 
Q 2534 397 2845 478 
Q 3156 559 3463 722 
L 3463 178 
Q 3153 47 2828 -22 
Q 2503 -91 2169 -91 
Q 1331 -91 842 396 
Q 353 884 353 1716 
Q 353 2575 817 3079 
Q 1281 3584 2069 3584 
Q 2775 3584 3186 3129 
Q 3597 2675 3597 1894 
z
M 3022 2063 
Q 3016 2534 2758 2815 
Q 2500 3097 2075 3097 
Q 1594 3097 1305 2825 
Q 1016 2553 972 2059 
L 3022 2063 
z
" transform="scale(0.015625)"/>
       <path id="DejaVuSans-20" transform="scale(0.015625)"/>
       <path id="DejaVuSans-66" d="M 2375 4863 
L 2375 4384 
L 1825 4384 
Q 1516 4384 1395 4259 
Q 1275 4134 1275 3809 
L 1275 3500 
L 2222 3500 
L 2222 3053 
L 1275 3053 
L 1275 0 
L 697 0 
L 697 3053 
L 147 3053 
L 147 3500 
L 697 3500 
L 697 3744 
Q 697 4328 969 4595 
Q 1241 4863 1831 4863 
L 2375 4863 
z
" transform="scale(0.015625)"/>
       <path id="DejaVuSans-72" d="M 2631 2963 
Q 2534 3019 2420 3045 
Q 2306 3072 2169 3072 
Q 1681 3072 1420 2755 
Q 1159 2438 1159 1844 
L 1159 0 
L 581 0 
L 581 3500 
L 1159 3500 
L 1159 2956 
Q 1341 3275 1631 3429 
Q 1922 3584 2338 3584 
Q 2397 3584 2469 3576 
Q 2541 3569 2628 3553 
L 2631 2963 
z
" transform="scale(0.015625)"/>
       <path id="DejaVuSans-6f" d="M 1959 3097 
Q 1497 3097 1228 2736 
Q 959 2375 959 1747 
Q 959 1119 1226 758 
Q 1494 397 1959 397 
Q 2419 397 2687 759 
Q 2956 1122 2956 1747 
Q 2956 2369 2687 2733 
Q 2419 3097 1959 3097 
z
M 1959 3584 
Q 2709 3584 3137 3096 
Q 3566 2609 3566 1747 
Q 3566 888 3137 398 
Q 2709 -91 1959 -91 
Q 1206 -91 779 398 
Q 353 888 353 1747 
Q 353 2609 779 3096 
Q 1206 3584 1959 3584 
z
" transform="scale(0.015625)"/>
       <path id="DejaVuSans-6d" d="M 3328 2828 
Q 3544 3216 3844 3400 
Q 4144 3584 4550 3584 
Q 5097 3584 5394 3201 
Q 5691 2819 5691 2113 
L 5691 0 
L 5113 0 
L 5113 2094 
Q 5113 2597 4934 2840 
Q 4756 3084 4391 3084 
Q 3944 3084 3684 2787 
Q 3425 2491 3425 1978 
L 3425 0 
L 2847 0 
L 2847 2094 
Q 2847 2600 2669 2842 
Q 2491 3084 2119 3084 
Q 1678 3084 1418 2786 
Q 1159 2488 1159 1978 
L 1159 0 
L 581 0 
L 581 3500 
L 1159 3500 
L 1159 2956 
Q 1356 3278 1631 3431 
Q 1906 3584 2284 3584 
Q 2666 3584 2933 3390 
Q 3200 3197 3328 2828 
z
" transform="scale(0.015625)"/>
       <path id="DejaVuSans-5b" d="M 550 4863 
L 1875 4863 
L 1875 4416 
L 1125 4416 
L 1125 -397 
L 1875 -397 
L 1875 -844 
L 550 -844 
L 550 4863 
z
" transform="scale(0.015625)"/>
       <path id="DejaVuSans-75" d="M 544 1381 
L 544 3500 
L 1119 3500 
L 1119 1403 
Q 1119 906 1312 657 
Q 1506 409 1894 409 
Q 2359 409 2629 706 
Q 2900 1003 2900 1516 
L 2900 3500 
L 3475 3500 
L 3475 0 
L 2900 0 
L 2900 538 
Q 2691 219 2414 64 
Q 2138 -91 1772 -91 
Q 1169 -91 856 284 
Q 544 659 544 1381 
z
M 1991 3584 
L 1991 3584 
z
" transform="scale(0.015625)"/>
       <path id="DejaVuSans-5d" d="M 1947 4863 
L 1947 -844 
L 622 -844 
L 622 -397 
L 1369 -397 
L 1369 4416 
L 622 4416 
L 622 4863 
L 1947 4863 
z
" transform="scale(0.015625)"/>
      </defs>
      <use xlink:href="#DejaVuSans-44"/>
      <use xlink:href="#DejaVuSans-69" x="77.001953"/>
      <use xlink:href="#DejaVuSans-73" x="104.785156"/>
      <use xlink:href="#DejaVuSans-74" x="156.884766"/>
      <use xlink:href="#DejaVuSans-61" x="196.09375"/>
      <use xlink:href="#DejaVuSans-6e" x="257.373047"/>
      <use xlink:href="#DejaVuSans-63" x="320.751953"/>
      <use xlink:href="#DejaVuSans-65" x="375.732422"/>
      <use xlink:href="#DejaVuSans-20" x="437.255859"/>
      <use xlink:href="#DejaVuSans-66" x="469.042969"/>
      <use xlink:href="#DejaVuSans-72" x="504.248047"/>
      <use xlink:href="#DejaVuSans-6f" x="543.111328"/>
      <use xlink:href="#DejaVuSans-6d" x="604.292969"/>
      <use xlink:href="#DejaVuSans-20" x="701.705078"/>
      <use xlink:href="#DejaVuSans-73" x="733.492188"/>
      <use xlink:href="#DejaVuSans-74" x="785.591797"/>
      <use xlink:href="#DejaVuSans-69" x="824.800781"/>
      <use xlink:href="#DejaVuSans-6d" x="852.583984"/>
      <use xlink:href="#DejaVuSans-20" x="949.996094"/>
      <use xlink:href="#DejaVuSans-5b" x="981.783203"/>
      <use xlink:href="#DejaVuSans-75" x="1020.796875"/>
      <use xlink:href="#DejaVuSans-6d" x="1084.175781"/>
      <use xlink:href="#DejaVuSans-5d" x="1181.587891"/>
     </g>
    </g>
   </g>
   <g id="matplotlib.axis_2">
    <g id="ytick_1">
     <g id="line2d_4">
      <defs>
       <path id="m299e5b8a05" d="M 0 0 
L -3.5 0 
" style="stroke: #000000; stroke-width: 0.8"/>
      </defs>
      <g>
       <use xlink:href="#m299e5b8a05" x="59.820625" y="277.99569" style="stroke: #000000; stroke-width: 0.8"/>
      </g>
     </g>
     <g id="text_5">
      <!-- 0.2 -->
      <g transform="translate(30.55625 283.314596)scale(0.14 -0.14)">
       <defs>
        <path id="DejaVuSans-2e" d="M 684 794 
L 1344 794 
L 1344 0 
L 684 0 
L 684 794 
z
" transform="scale(0.015625)"/>
       </defs>
       <use xlink:href="#DejaVuSans-30"/>
       <use xlink:href="#DejaVuSans-2e" x="63.623047"/>
       <use xlink:href="#DejaVuSans-32" x="95.410156"/>
      </g>
     </g>
    </g>
    <g id="ytick_2">
     <g id="line2d_5">
      <g>
       <use xlink:href="#m299e5b8a05" x="59.820625" y="233.616401" style="stroke: #000000; stroke-width: 0.8"/>
      </g>
     </g>
     <g id="text_6">
      <!-- 0.4 -->
      <g transform="translate(30.55625 238.935308)scale(0.14 -0.14)">
       <defs>
        <path id="DejaVuSans-34" d="M 2419 4116 
L 825 1625 
L 2419 1625 
L 2419 4116 
z
M 2253 4666 
L 3047 4666 
L 3047 1625 
L 3713 1625 
L 3713 1100 
L 3047 1100 
L 3047 0 
L 2419 0 
L 2419 1100 
L 313 1100 
L 313 1709 
L 2253 4666 
z
" transform="scale(0.015625)"/>
       </defs>
       <use xlink:href="#DejaVuSans-30"/>
       <use xlink:href="#DejaVuSans-2e" x="63.623047"/>
       <use xlink:href="#DejaVuSans-34" x="95.410156"/>
      </g>
     </g>
    </g>
    <g id="ytick_3">
     <g id="line2d_6">
      <g>
       <use xlink:href="#m299e5b8a05" x="59.820625" y="189.237113" style="stroke: #000000; stroke-width: 0.8"/>
      </g>
     </g>
     <g id="text_7">
      <!-- 0.6 -->
      <g transform="translate(30.55625 194.556019)scale(0.14 -0.14)">
       <defs>
        <path id="DejaVuSans-36" d="M 2113 2584 
Q 1688 2584 1439 2293 
Q 1191 2003 1191 1497 
Q 1191 994 1439 701 
Q 1688 409 2113 409 
Q 2538 409 2786 701 
Q 3034 994 3034 1497 
Q 3034 2003 2786 2293 
Q 2538 2584 2113 2584 
z
M 3366 4563 
L 3366 3988 
Q 3128 4100 2886 4159 
Q 2644 4219 2406 4219 
Q 1781 4219 1451 3797 
Q 1122 3375 1075 2522 
Q 1259 2794 1537 2939 
Q 1816 3084 2150 3084 
Q 2853 3084 3261 2657 
Q 3669 2231 3669 1497 
Q 3669 778 3244 343 
Q 2819 -91 2113 -91 
Q 1303 -91 875 529 
Q 447 1150 447 2328 
Q 447 3434 972 4092 
Q 1497 4750 2381 4750 
Q 2619 4750 2861 4703 
Q 3103 4656 3366 4563 
z
" transform="scale(0.015625)"/>
       </defs>
       <use xlink:href="#DejaVuSans-30"/>
       <use xlink:href="#DejaVuSans-2e" x="63.623047"/>
       <use xlink:href="#DejaVuSans-36" x="95.410156"/>
      </g>
     </g>
    </g>
    <g id="ytick_4">
     <g id="line2d_7">
      <g>
       <use xlink:href="#m299e5b8a05" x="59.820625" y="144.857824" style="stroke: #000000; stroke-width: 0.8"/>
      </g>
     </g>
     <g id="text_8">
      <!-- 0.8 -->
      <g transform="translate(30.55625 150.17673)scale(0.14 -0.14)">
       <defs>
        <path id="DejaVuSans-38" d="M 2034 2216 
Q 1584 2216 1326 1975 
Q 1069 1734 1069 1313 
Q 1069 891 1326 650 
Q 1584 409 2034 409 
Q 2484 409 2743 651 
Q 3003 894 3003 1313 
Q 3003 1734 2745 1975 
Q 2488 2216 2034 2216 
z
M 1403 2484 
Q 997 2584 770 2862 
Q 544 3141 544 3541 
Q 544 4100 942 4425 
Q 1341 4750 2034 4750 
Q 2731 4750 3128 4425 
Q 3525 4100 3525 3541 
Q 3525 3141 3298 2862 
Q 3072 2584 2669 2484 
Q 3125 2378 3379 2068 
Q 3634 1759 3634 1313 
Q 3634 634 3220 271 
Q 2806 -91 2034 -91 
Q 1263 -91 848 271 
Q 434 634 434 1313 
Q 434 1759 690 2068 
Q 947 2378 1403 2484 
z
M 1172 3481 
Q 1172 3119 1398 2916 
Q 1625 2713 2034 2713 
Q 2441 2713 2670 2916 
Q 2900 3119 2900 3481 
Q 2900 3844 2670 4047 
Q 2441 4250 2034 4250 
Q 1625 4250 1398 4047 
Q 1172 3844 1172 3481 
z
" transform="scale(0.015625)"/>
       </defs>
       <use xlink:href="#DejaVuSans-30"/>
       <use xlink:href="#DejaVuSans-2e" x="63.623047"/>
       <use xlink:href="#DejaVuSans-38" x="95.410156"/>
      </g>
     </g>
    </g>
    <g id="ytick_5">
     <g id="line2d_8">
      <g>
       <use xlink:href="#m299e5b8a05" x="59.820625" y="100.478535" style="stroke: #000000; stroke-width: 0.8"/>
      </g>
     </g>
     <g id="text_9">
      <!-- 1.0 -->
      <g transform="translate(30.55625 105.797441)scale(0.14 -0.14)">
       <defs>
        <path id="DejaVuSans-31" d="M 794 531 
L 1825 531 
L 1825 4091 
L 703 3866 
L 703 4441 
L 1819 4666 
L 2450 4666 
L 2450 531 
L 3481 531 
L 3481 0 
L 794 0 
L 794 531 
z
" transform="scale(0.015625)"/>
       </defs>
       <use xlink:href="#DejaVuSans-31"/>
       <use xlink:href="#DejaVuSans-2e" x="63.623047"/>
       <use xlink:href="#DejaVuSans-30" x="95.410156"/>
      </g>
     </g>
    </g>
    <g id="ytick_6">
     <g id="line2d_9">
      <g>
       <use xlink:href="#m299e5b8a05" x="59.820625" y="56.099246" style="stroke: #000000; stroke-width: 0.8"/>
      </g>
     </g>
     <g id="text_10">
      <!-- 1.2 -->
      <g transform="translate(30.55625 61.418152)scale(0.14 -0.14)">
       <use xlink:href="#DejaVuSans-31"/>
       <use xlink:href="#DejaVuSans-2e" x="63.623047"/>
       <use xlink:href="#DejaVuSans-32" x="95.410156"/>
      </g>
     </g>
    </g>
    <g id="text_11">
     <!-- Calcium [uM] -->
     <g transform="translate(22.396875 227.10875)rotate(-90)scale(0.2 -0.2)">
      <defs>
       <path id="DejaVuSans-43" d="M 4122 4306 
L 4122 3641 
Q 3803 3938 3442 4084 
Q 3081 4231 2675 4231 
Q 1875 4231 1450 3742 
Q 1025 3253 1025 2328 
Q 1025 1406 1450 917 
Q 1875 428 2675 428 
Q 3081 428 3442 575 
Q 3803 722 4122 1019 
L 4122 359 
Q 3791 134 3420 21 
Q 3050 -91 2638 -91 
Q 1578 -91 968 557 
Q 359 1206 359 2328 
Q 359 3453 968 4101 
Q 1578 4750 2638 4750 
Q 3056 4750 3426 4639 
Q 3797 4528 4122 4306 
z
" transform="scale(0.015625)"/>
       <path id="DejaVuSans-6c" d="M 603 4863 
L 1178 4863 
L 1178 0 
L 603 0 
L 603 4863 
z
" transform="scale(0.015625)"/>
       <path id="DejaVuSans-4d" d="M 628 4666 
L 1569 4666 
L 2759 1491 
L 3956 4666 
L 4897 4666 
L 4897 0 
L 4281 0 
L 4281 4097 
L 3078 897 
L 2444 897 
L 1241 4097 
L 1241 0 
L 628 0 
L 628 4666 
z
" transform="scale(0.015625)"/>
      </defs>
      <use xlink:href="#DejaVuSans-43"/>
      <use xlink:href="#DejaVuSans-61" x="69.824219"/>
      <use xlink:href="#DejaVuSans-6c" x="131.103516"/>
      <use xlink:href="#DejaVuSans-63" x="158.886719"/>
      <use xlink:href="#DejaVuSans-69" x="213.867188"/>
      <use xlink:href="#DejaVuSans-75" x="241.650391"/>
      <use xlink:href="#DejaVuSans-6d" x="305.029297"/>
      <use xlink:href="#DejaVuSans-20" x="402.441406"/>
      <use xlink:href="#DejaVuSans-5b" x="434.228516"/>
      <use xlink:href="#DejaVuSans-75" x="473.242188"/>
      <use xlink:href="#DejaVuSans-4d" x="536.621094"/>
      <use xlink:href="#DejaVuSans-5d" x="622.900391"/>
     </g>
    </g>
   </g>
   <g id="line2d_10">
    <path d="M 71.010465 296.019302 
L 73.226274 295.251661 
L 75.442084 296.275183 
L 77.657894 297.042824 
L 79.873704 295.251661 
L 82.089514 294.48402 
L 84.305323 295.507541 
L 86.521133 294.7399 
L 88.736943 295.763422 
L 90.952753 295.507541 
L 93.168563 294.995781 
L 95.384373 295.507541 
L 97.600182 294.48402 
L 99.815992 293.716379 
L 102.031802 295.763422 
L 104.247612 293.972259 
L 106.463422 294.995781 
L 108.679231 295.507541 
L 110.895041 294.7399 
L 113.110851 296.275183 
L 115.326661 296.786943 
L 117.542471 293.204618 
L 119.758281 295.763422 
L 121.97409 294.7399 
L 124.1899 294.7399 
L 126.40571 293.204618 
L 128.62152 296.786943 
L 130.83733 295.507541 
L 133.053139 296.019302 
L 135.268949 295.763422 
L 137.484759 295.251661 
L 139.700569 294.7399 
L 141.916379 293.972259 
L 144.132189 294.995781 
L 146.347998 295.763422 
L 148.563808 295.763422 
L 150.779618 293.204618 
L 152.995428 291.413456 
L 155.211238 290.901695 
L 157.427047 291.669336 
L 159.642857 290.389934 
L 161.858667 288.854652 
L 164.074477 285.016447 
L 166.290287 274.013591 
L 168.506096 275.037113 
L 170.721906 270.175386 
L 172.937716 266.848941 
L 175.153526 255.334325 
L 177.369336 248.425556 
L 179.585146 227.699247 
L 181.800955 38.603663 
L 184.016765 75.450434 
L 186.232575 230.25805 
L 188.448385 238.190342 
L 190.664195 239.213863 
L 192.880004 268.640104 
L 195.095814 269.919506 
L 197.311624 262.498975 
L 199.527434 264.546018 
L 201.743244 269.407745 
L 203.959054 281.178241 
L 206.174863 277.851797 
L 208.390673 290.645815 
L 210.606483 290.134054 
L 212.822293 291.413456 
L 215.038103 291.413456 
L 217.253912 291.669336 
L 219.469722 294.7399 
L 221.685532 291.925216 
L 223.901342 294.22814 
L 226.117152 295.251661 
L 228.332962 294.48402 
L 230.548771 296.275183 
L 232.764581 295.763422 
L 234.980391 294.48402 
L 237.196201 292.948738 
L 239.412011 295.763422 
L 241.62782 295.251661 
L 243.84363 294.995781 
L 246.05944 296.019302 
L 248.27525 296.275183 
L 250.49106 294.48402 
L 252.70687 295.251661 
L 254.922679 295.251661 
L 257.138489 295.763422 
L 259.354299 295.763422 
L 261.570109 295.251661 
L 263.785919 297.042824 
L 266.001728 296.786943 
L 268.217538 294.995781 
L 270.433348 297.042824 
L 272.649158 296.275183 
L 274.864968 293.716379 
L 277.080777 296.786943 
L 279.296587 294.48402 
L 281.512397 294.995781 
L 283.728207 296.275183 
L 285.944017 296.275183 
L 288.159827 295.507541 
L 290.375636 295.251661 
L 292.591446 293.716379 
L 294.807256 296.019302 
" clip-path="url(#p2af92d8a42)" style="fill: none; stroke: #1f77b4; stroke-width: 1.5; stroke-linecap: square"/>
   </g>
   <g id="line2d_11">
    <path d="M 71.010465 294.7399 
L 73.226274 295.251661 
L 75.442084 296.019302 
L 77.657894 294.995781 
L 79.873704 293.460499 
L 82.089514 296.019302 
L 84.305323 295.763422 
L 86.521133 296.531063 
L 88.736943 295.763422 
L 90.952753 292.948738 
L 93.168563 294.22814 
L 95.384373 293.716379 
L 97.600182 294.995781 
L 99.815992 294.995781 
L 102.031802 295.763422 
L 104.247612 294.995781 
L 106.463422 295.507541 
L 108.679231 292.181097 
L 110.895041 296.786943 
L 113.110851 294.995781 
L 115.326661 295.763422 
L 117.542471 295.763422 
L 119.758281 295.507541 
L 121.97409 296.531063 
L 124.1899 293.972259 
L 126.40571 295.763422 
L 128.62152 293.204618 
L 130.83733 296.019302 
L 133.053139 295.763422 
L 135.268949 296.019302 
L 137.484759 292.181097 
L 139.700569 294.995781 
L 141.916379 292.948738 
L 144.132189 293.972259 
L 146.347998 289.110533 
L 148.563808 289.110533 
L 150.779618 286.551729 
L 152.995428 290.645815 
L 155.211238 276.316515 
L 157.427047 278.875318 
L 159.642857 277.851797 
L 161.858667 279.387079 
L 164.074477 267.360702 
L 166.290287 265.82542 
L 168.506096 267.872463 
L 170.721906 272.222429 
L 172.937716 257.125488 
L 175.153526 251.24024 
L 177.369336 243.563829 
L 179.585146 230.00217 
L 181.800955 52.165322 
L 184.016765 87.220931 
L 186.232575 212.602306 
L 188.448385 255.846086 
L 190.664195 254.822565 
L 192.880004 261.731334 
L 195.095814 269.663625 
L 197.311624 257.381368 
L 199.527434 276.060634 
L 201.743244 266.0813 
L 203.959054 282.713524 
L 206.174863 283.225284 
L 208.390673 281.434122 
L 210.606483 276.828275 
L 212.822293 284.248806 
L 215.038103 285.784088 
L 217.253912 286.295849 
L 219.469722 282.713524 
L 221.685532 288.342891 
L 223.901342 282.201763 
L 226.117152 285.272327 
L 228.332962 276.572395 
L 230.548771 282.969404 
L 232.764581 289.366413 
L 234.980391 282.969404 
L 237.196201 288.087011 
L 239.412011 285.016447 
L 241.62782 291.669336 
L 243.84363 294.7399 
L 246.05944 295.251661 
L 248.27525 294.995781 
L 250.49106 295.763422 
L 252.70687 296.275183 
L 254.922679 296.019302 
L 257.138489 296.531063 
L 259.354299 296.531063 
L 261.570109 296.019302 
L 263.785919 296.275183 
L 266.001728 295.251661 
L 268.217538 296.019302 
L 270.433348 295.251661 
L 272.649158 296.275183 
L 274.864968 296.786943 
L 277.080777 295.507541 
L 279.296587 294.995781 
L 281.512397 295.763422 
L 283.728207 295.251661 
L 285.944017 290.901695 
L 288.159827 296.019302 
L 290.375636 296.275183 
L 292.591446 296.531063 
L 294.807256 295.251661 
" clip-path="url(#p2af92d8a42)" style="fill: none; stroke: #2ca02c; stroke-width: 1.5; stroke-linecap: square"/>
   </g>
   <g id="line2d_12">
    <path d="M 71.010465 294.995781 
L 73.226274 296.019302 
L 75.442084 296.275183 
L 77.657894 295.251661 
L 79.873704 296.019302 
L 82.089514 291.157575 
L 84.305323 296.275183 
L 86.521133 293.972259 
L 88.736943 293.972259 
L 90.952753 296.531063 
L 93.168563 297.042824 
L 95.384373 296.531063 
L 97.600182 295.763422 
L 99.815992 295.763422 
L 102.031802 296.786943 
L 104.247612 295.507541 
L 106.463422 294.7399 
L 108.679231 295.507541 
L 110.895041 296.531063 
L 113.110851 295.763422 
L 115.326661 296.019302 
L 117.542471 297.298704 
L 119.758281 296.531063 
L 121.97409 296.531063 
L 124.1899 295.507541 
L 126.40571 295.763422 
L 128.62152 295.763422 
L 130.83733 295.763422 
L 133.053139 294.995781 
L 135.268949 295.507541 
L 137.484759 297.042824 
L 139.700569 296.019302 
L 141.916379 295.507541 
L 144.132189 296.531063 
L 146.347998 295.251661 
L 148.563808 296.275183 
L 150.779618 292.181097 
L 152.995428 292.948738 
L 155.211238 295.507541 
L 157.427047 295.251661 
L 159.642857 294.7399 
L 161.858667 296.019302 
L 164.074477 295.763422 
L 166.290287 293.460499 
L 168.506096 292.948738 
L 170.721906 292.948738 
L 172.937716 288.342891 
L 175.153526 286.551729 
L 177.369336 279.131199 
L 179.585146 266.593061 
L 181.800955 90.035615 
L 184.016765 87.988572 
L 186.232575 264.034258 
L 188.448385 280.922361 
L 190.664195 284.248806 
L 192.880004 289.366413 
L 195.095814 290.901695 
L 197.311624 293.716379 
L 199.527434 292.948738 
L 201.743244 294.995781 
L 203.959054 293.972259 
L 206.174863 295.507541 
L 208.390673 294.22814 
L 210.606483 294.7399 
L 212.822293 296.019302 
L 215.038103 296.019302 
L 217.253912 296.531063 
L 219.469722 296.275183 
L 221.685532 295.763422 
L 223.901342 293.972259 
L 226.117152 295.763422 
L 228.332962 295.251661 
L 230.548771 296.275183 
L 232.764581 295.763422 
L 234.980391 297.298704 
L 237.196201 297.042824 
L 239.412011 296.019302 
L 241.62782 296.786943 
L 243.84363 297.042824 
L 246.05944 296.786943 
L 248.27525 295.763422 
L 250.49106 294.48402 
L 252.70687 296.019302 
L 254.922679 296.019302 
L 257.138489 295.507541 
L 259.354299 296.019302 
L 261.570109 297.042824 
L 263.785919 297.042824 
L 266.001728 296.531063 
L 268.217538 295.507541 
L 270.433348 297.298704 
L 272.649158 295.763422 
L 274.864968 295.507541 
L 277.080777 294.48402 
L 279.296587 296.019302 
L 281.512397 295.763422 
L 283.728207 295.763422 
L 285.944017 296.786943 
L 288.159827 296.019302 
L 290.375636 295.507541 
L 292.591446 295.763422 
L 294.807256 296.786943 
" clip-path="url(#p2af92d8a42)" style="fill: none; stroke: #17becf; stroke-width: 1.5; stroke-linecap: square"/>
   </g>
   <g id="line2d_13">
    <path d="M 71.010465 295.763422 
L 73.226274 296.019302 
L 75.442084 296.786943 
L 77.657894 296.531063 
L 79.873704 296.275183 
L 82.089514 296.531063 
L 84.305323 296.786943 
L 86.521133 296.531063 
L 88.736943 296.275183 
L 90.952753 295.763422 
L 93.168563 296.531063 
L 95.384373 296.275183 
L 97.600182 296.786943 
L 99.815992 294.995781 
L 102.031802 296.275183 
L 104.247612 296.275183 
L 106.463422 296.275183 
L 108.679231 295.507541 
L 110.895041 292.948738 
L 113.110851 295.763422 
L 115.326661 296.275183 
L 117.542471 294.995781 
L 119.758281 296.531063 
L 121.97409 296.019302 
L 124.1899 295.251661 
L 126.40571 296.019302 
L 128.62152 295.507541 
L 130.83733 296.786943 
L 133.053139 296.019302 
L 135.268949 293.460499 
L 137.484759 295.507541 
L 139.700569 296.019302 
L 141.916379 293.716379 
L 144.132189 296.019302 
L 146.347998 295.251661 
L 148.563808 295.251661 
L 150.779618 295.763422 
L 152.995428 295.507541 
L 155.211238 295.763422 
L 157.427047 295.763422 
L 159.642857 294.22814 
L 161.858667 294.7399 
L 164.074477 294.7399 
L 166.290287 292.948738 
L 168.506096 293.460499 
L 170.721906 291.925216 
L 172.937716 289.878174 
L 175.153526 284.248806 
L 177.369336 281.178241 
L 179.585146 268.895984 
L 181.800955 93.61794 
L 184.016765 100.014949 
L 186.232575 261.219574 
L 188.448385 279.387079 
L 190.664195 287.31937 
L 192.880004 289.110533 
L 195.095814 291.413456 
L 197.311624 293.204618 
L 199.527434 293.460499 
L 201.743244 293.716379 
L 203.959054 293.972259 
L 206.174863 295.251661 
L 208.390673 296.275183 
L 210.606483 295.507541 
L 212.822293 294.995781 
L 215.038103 295.507541 
L 217.253912 295.251661 
L 219.469722 294.995781 
L 221.685532 295.763422 
L 223.901342 295.251661 
L 226.117152 295.251661 
L 228.332962 295.507541 
L 230.548771 295.763422 
L 232.764581 295.763422 
L 234.980391 296.019302 
L 237.196201 294.48402 
L 239.412011 293.204618 
L 241.62782 296.275183 
L 243.84363 296.019302 
L 246.05944 296.531063 
L 248.27525 296.019302 
L 250.49106 296.786943 
L 252.70687 296.786943 
L 254.922679 296.786943 
L 257.138489 295.763422 
L 259.354299 297.042824 
L 261.570109 293.972259 
L 263.785919 296.275183 
L 266.001728 296.531063 
L 268.217538 296.275183 
L 270.433348 296.786943 
L 272.649158 296.786943 
L 274.864968 293.972259 
L 277.080777 296.275183 
L 279.296587 296.531063 
L 281.512397 294.995781 
L 283.728207 297.042824 
L 285.944017 294.995781 
L 288.159827 297.298704 
L 290.375636 294.22814 
L 292.591446 294.995781 
L 294.807256 294.48402 
" clip-path="url(#p2af92d8a42)" style="fill: none; stroke: #bcbd22; stroke-width: 1.5; stroke-linecap: square"/>
   </g>
   <g id="patch_3">
    <path d="M 59.820625 299.518125 
L 59.820625 22.318125 
" style="fill: none; stroke: #000000; stroke-width: 0.8; stroke-linejoin: miter; stroke-linecap: square"/>
   </g>
   <g id="patch_4">
    <path d="M 305.997096 299.518125 
L 305.997096 22.318125 
" style="fill: none; stroke: #000000; stroke-width: 0.8; stroke-linejoin: miter; stroke-linecap: square"/>
   </g>
   <g id="patch_5">
    <path d="M 59.820625 299.518125 
L 305.997096 299.518125 
" style="fill: none; stroke: #000000; stroke-width: 0.8; stroke-linejoin: miter; stroke-linecap: square"/>
   </g>
   <g id="patch_6">
    <path d="M 59.820625 22.318125 
L 305.997096 22.318125 
" style="fill: none; stroke: #000000; stroke-width: 0.8; stroke-linejoin: miter; stroke-linecap: square"/>
   </g>
   <g id="text_12">
    <!-- 2 uM Ca injection diam 1.2 um -->
    <g transform="translate(90.998235 16.318125)scale(0.12 -0.12)">
     <defs>
      <path id="DejaVuSans-6a" d="M 603 3500 
L 1178 3500 
L 1178 -63 
Q 1178 -731 923 -1031 
Q 669 -1331 103 -1331 
L -116 -1331 
L -116 -844 
L 38 -844 
Q 366 -844 484 -692 
Q 603 -541 603 -63 
L 603 3500 
z
M 603 4863 
L 1178 4863 
L 1178 4134 
L 603 4134 
L 603 4863 
z
" transform="scale(0.015625)"/>
      <path id="DejaVuSans-64" d="M 2906 2969 
L 2906 4863 
L 3481 4863 
L 3481 0 
L 2906 0 
L 2906 525 
Q 2725 213 2448 61 
Q 2172 -91 1784 -91 
Q 1150 -91 751 415 
Q 353 922 353 1747 
Q 353 2572 751 3078 
Q 1150 3584 1784 3584 
Q 2172 3584 2448 3432 
Q 2725 3281 2906 2969 
z
M 947 1747 
Q 947 1113 1208 752 
Q 1469 391 1925 391 
Q 2381 391 2643 752 
Q 2906 1113 2906 1747 
Q 2906 2381 2643 2742 
Q 2381 3103 1925 3103 
Q 1469 3103 1208 2742 
Q 947 2381 947 1747 
z
" transform="scale(0.015625)"/>
     </defs>
     <use xlink:href="#DejaVuSans-32"/>
     <use xlink:href="#DejaVuSans-20" x="63.623047"/>
     <use xlink:href="#DejaVuSans-75" x="95.410156"/>
     <use xlink:href="#DejaVuSans-4d" x="158.789062"/>
     <use xlink:href="#DejaVuSans-20" x="245.068359"/>
     <use xlink:href="#DejaVuSans-43" x="276.855469"/>
     <use xlink:href="#DejaVuSans-61" x="346.679688"/>
     <use xlink:href="#DejaVuSans-20" x="407.958984"/>
     <use xlink:href="#DejaVuSans-69" x="439.746094"/>
     <use xlink:href="#DejaVuSans-6e" x="467.529297"/>
     <use xlink:href="#DejaVuSans-6a" x="530.908203"/>
     <use xlink:href="#DejaVuSans-65" x="558.691406"/>
     <use xlink:href="#DejaVuSans-63" x="620.214844"/>
     <use xlink:href="#DejaVuSans-74" x="675.195312"/>
     <use xlink:href="#DejaVuSans-69" x="714.404297"/>
     <use xlink:href="#DejaVuSans-6f" x="742.1875"/>
     <use xlink:href="#DejaVuSans-6e" x="803.369141"/>
     <use xlink:href="#DejaVuSans-20" x="866.748047"/>
     <use xlink:href="#DejaVuSans-64" x="898.535156"/>
     <use xlink:href="#DejaVuSans-69" x="962.011719"/>
     <use xlink:href="#DejaVuSans-61" x="989.794922"/>
     <use xlink:href="#DejaVuSans-6d" x="1051.074219"/>
     <use xlink:href="#DejaVuSans-20" x="1148.486328"/>
     <use xlink:href="#DejaVuSans-31" x="1180.273438"/>
     <use xlink:href="#DejaVuSans-2e" x="1243.896484"/>
     <use xlink:href="#DejaVuSans-32" x="1275.683594"/>
     <use xlink:href="#DejaVuSans-20" x="1339.306641"/>
     <use xlink:href="#DejaVuSans-75" x="1371.09375"/>
     <use xlink:href="#DejaVuSans-6d" x="1434.472656"/>
    </g>
   </g>
   <g id="legend_1">
    <g id="patch_7">
     <path d="M 161.643971 89.030625 
L 298.997096 89.030625 
Q 300.997096 89.030625 300.997096 87.030625 
L 300.997096 29.318125 
Q 300.997096 27.318125 298.997096 27.318125 
L 161.643971 27.318125 
Q 159.643971 27.318125 159.643971 29.318125 
L 159.643971 87.030625 
Q 159.643971 89.030625 161.643971 89.030625 
z
" style="fill: #ffffff; opacity: 0.8; stroke: #cccccc; stroke-linejoin: miter"/>
    </g>
    <g id="line2d_14">
     <path d="M 163.643971 35.416563 
L 173.643971 35.416563 
L 183.643971 35.416563 
" style="fill: none; stroke: #1f77b4; stroke-width: 1.5; stroke-linecap: square"/>
    </g>
    <g id="text_13">
     <!-- no SOCE RyR dis-inh. -->
     <g transform="translate(191.643971 38.916563)scale(0.1 -0.1)">
      <defs>
       <path id="DejaVuSans-53" d="M 3425 4513 
L 3425 3897 
Q 3066 4069 2747 4153 
Q 2428 4238 2131 4238 
Q 1616 4238 1336 4038 
Q 1056 3838 1056 3469 
Q 1056 3159 1242 3001 
Q 1428 2844 1947 2747 
L 2328 2669 
Q 3034 2534 3370 2195 
Q 3706 1856 3706 1288 
Q 3706 609 3251 259 
Q 2797 -91 1919 -91 
Q 1588 -91 1214 -16 
Q 841 59 441 206 
L 441 856 
Q 825 641 1194 531 
Q 1563 422 1919 422 
Q 2459 422 2753 634 
Q 3047 847 3047 1241 
Q 3047 1584 2836 1778 
Q 2625 1972 2144 2069 
L 1759 2144 
Q 1053 2284 737 2584 
Q 422 2884 422 3419 
Q 422 4038 858 4394 
Q 1294 4750 2059 4750 
Q 2388 4750 2728 4690 
Q 3069 4631 3425 4513 
z
" transform="scale(0.015625)"/>
       <path id="DejaVuSans-4f" d="M 2522 4238 
Q 1834 4238 1429 3725 
Q 1025 3213 1025 2328 
Q 1025 1447 1429 934 
Q 1834 422 2522 422 
Q 3209 422 3611 934 
Q 4013 1447 4013 2328 
Q 4013 3213 3611 3725 
Q 3209 4238 2522 4238 
z
M 2522 4750 
Q 3503 4750 4090 4092 
Q 4678 3434 4678 2328 
Q 4678 1225 4090 567 
Q 3503 -91 2522 -91 
Q 1538 -91 948 565 
Q 359 1222 359 2328 
Q 359 3434 948 4092 
Q 1538 4750 2522 4750 
z
" transform="scale(0.015625)"/>
       <path id="DejaVuSans-45" d="M 628 4666 
L 3578 4666 
L 3578 4134 
L 1259 4134 
L 1259 2753 
L 3481 2753 
L 3481 2222 
L 1259 2222 
L 1259 531 
L 3634 531 
L 3634 0 
L 628 0 
L 628 4666 
z
" transform="scale(0.015625)"/>
       <path id="DejaVuSans-52" d="M 2841 2188 
Q 3044 2119 3236 1894 
Q 3428 1669 3622 1275 
L 4263 0 
L 3584 0 
L 2988 1197 
Q 2756 1666 2539 1819 
Q 2322 1972 1947 1972 
L 1259 1972 
L 1259 0 
L 628 0 
L 628 4666 
L 2053 4666 
Q 2853 4666 3247 4331 
Q 3641 3997 3641 3322 
Q 3641 2881 3436 2590 
Q 3231 2300 2841 2188 
z
M 1259 4147 
L 1259 2491 
L 2053 2491 
Q 2509 2491 2742 2702 
Q 2975 2913 2975 3322 
Q 2975 3731 2742 3939 
Q 2509 4147 2053 4147 
L 1259 4147 
z
" transform="scale(0.015625)"/>
       <path id="DejaVuSans-79" d="M 2059 -325 
Q 1816 -950 1584 -1140 
Q 1353 -1331 966 -1331 
L 506 -1331 
L 506 -850 
L 844 -850 
Q 1081 -850 1212 -737 
Q 1344 -625 1503 -206 
L 1606 56 
L 191 3500 
L 800 3500 
L 1894 763 
L 2988 3500 
L 3597 3500 
L 2059 -325 
z
" transform="scale(0.015625)"/>
       <path id="DejaVuSans-2d" d="M 313 2009 
L 1997 2009 
L 1997 1497 
L 313 1497 
L 313 2009 
z
" transform="scale(0.015625)"/>
       <path id="DejaVuSans-68" d="M 3513 2113 
L 3513 0 
L 2938 0 
L 2938 2094 
Q 2938 2591 2744 2837 
Q 2550 3084 2163 3084 
Q 1697 3084 1428 2787 
Q 1159 2491 1159 1978 
L 1159 0 
L 581 0 
L 581 4863 
L 1159 4863 
L 1159 2956 
Q 1366 3272 1645 3428 
Q 1925 3584 2291 3584 
Q 2894 3584 3203 3211 
Q 3513 2838 3513 2113 
z
" transform="scale(0.015625)"/>
      </defs>
      <use xlink:href="#DejaVuSans-6e"/>
      <use xlink:href="#DejaVuSans-6f" x="63.378906"/>
      <use xlink:href="#DejaVuSans-20" x="124.560547"/>
      <use xlink:href="#DejaVuSans-53" x="156.347656"/>
      <use xlink:href="#DejaVuSans-4f" x="219.824219"/>
      <use xlink:href="#DejaVuSans-43" x="298.535156"/>
      <use xlink:href="#DejaVuSans-45" x="368.359375"/>
      <use xlink:href="#DejaVuSans-20" x="431.542969"/>
      <use xlink:href="#DejaVuSans-52" x="463.330078"/>
      <use xlink:href="#DejaVuSans-79" x="527.3125"/>
      <use xlink:href="#DejaVuSans-52" x="586.492188"/>
      <use xlink:href="#DejaVuSans-20" x="655.974609"/>
      <use xlink:href="#DejaVuSans-64" x="687.761719"/>
      <use xlink:href="#DejaVuSans-69" x="751.238281"/>
      <use xlink:href="#DejaVuSans-73" x="779.021484"/>
      <use xlink:href="#DejaVuSans-2d" x="831.121094"/>
      <use xlink:href="#DejaVuSans-69" x="867.205078"/>
      <use xlink:href="#DejaVuSans-6e" x="894.988281"/>
      <use xlink:href="#DejaVuSans-68" x="958.367188"/>
      <use xlink:href="#DejaVuSans-2e" x="1021.746094"/>
     </g>
    </g>
    <g id="line2d_15">
     <path d="M 163.643971 50.094688 
L 173.643971 50.094688 
L 183.643971 50.094688 
" style="fill: none; stroke: #2ca02c; stroke-width: 1.5; stroke-linecap: square"/>
    </g>
    <g id="text_14">
     <!--  RyR dis-inh. -->
     <g transform="translate(191.643971 53.594688)scale(0.1 -0.1)">
      <use xlink:href="#DejaVuSans-20"/>
      <use xlink:href="#DejaVuSans-52" x="31.787109"/>
      <use xlink:href="#DejaVuSans-79" x="95.769531"/>
      <use xlink:href="#DejaVuSans-52" x="154.949219"/>
      <use xlink:href="#DejaVuSans-20" x="224.431641"/>
      <use xlink:href="#DejaVuSans-64" x="256.21875"/>
      <use xlink:href="#DejaVuSans-69" x="319.695312"/>
      <use xlink:href="#DejaVuSans-73" x="347.478516"/>
      <use xlink:href="#DejaVuSans-2d" x="399.578125"/>
      <use xlink:href="#DejaVuSans-69" x="435.662109"/>
      <use xlink:href="#DejaVuSans-6e" x="463.445312"/>
      <use xlink:href="#DejaVuSans-68" x="526.824219"/>
      <use xlink:href="#DejaVuSans-2e" x="590.203125"/>
     </g>
    </g>
    <g id="line2d_16">
     <path d="M 163.643971 64.772813 
L 173.643971 64.772813 
L 183.643971 64.772813 
" style="fill: none; stroke: #17becf; stroke-width: 1.5; stroke-linecap: square"/>
    </g>
    <g id="text_15">
     <!-- no SOCE -->
     <g transform="translate(191.643971 68.272813)scale(0.1 -0.1)">
      <use xlink:href="#DejaVuSans-6e"/>
      <use xlink:href="#DejaVuSans-6f" x="63.378906"/>
      <use xlink:href="#DejaVuSans-20" x="124.560547"/>
      <use xlink:href="#DejaVuSans-53" x="156.347656"/>
      <use xlink:href="#DejaVuSans-4f" x="219.824219"/>
      <use xlink:href="#DejaVuSans-43" x="298.535156"/>
      <use xlink:href="#DejaVuSans-45" x="368.359375"/>
     </g>
    </g>
    <g id="line2d_17">
     <path d="M 163.643971 79.450938 
L 173.643971 79.450938 
L 183.643971 79.450938 
" style="fill: none; stroke: #bcbd22; stroke-width: 1.5; stroke-linecap: square"/>
    </g>
    <g id="text_16">
     <!-- ctrl -->
     <g transform="translate(191.643971 82.950938)scale(0.1 -0.1)">
      <use xlink:href="#DejaVuSans-63"/>
      <use xlink:href="#DejaVuSans-74" x="54.980469"/>
      <use xlink:href="#DejaVuSans-72" x="94.189453"/>
      <use xlink:href="#DejaVuSans-6c" x="135.302734"/>
     </g>
    </g>
   </g>
  </g>
  <g id="axes_2">
   <g id="patch_8">
    <path d="M 355.23239 299.518125 
L 601.40886 299.518125 
L 601.40886 22.318125 
L 355.23239 22.318125 
z
" style="fill: #ffffff"/>
   </g>
   <g id="matplotlib.axis_3">
    <g id="xtick_4">
     <g id="line2d_18">
      <g>
       <use xlink:href="#m3b6be0b88d" x="389.688232" y="299.518125" style="stroke: #000000; stroke-width: 0.8"/>
      </g>
     </g>
     <g id="text_17">
      <!-- −20 -->
      <g transform="translate(374.914951 317.155938)scale(0.14 -0.14)">
       <use xlink:href="#DejaVuSans-2212"/>
       <use xlink:href="#DejaVuSans-32" x="83.789062"/>
       <use xlink:href="#DejaVuSans-30" x="147.412109"/>
      </g>
     </g>
    </g>
    <g id="xtick_5">
     <g id="line2d_19">
      <g>
       <use xlink:href="#m3b6be0b88d" x="478.320625" y="299.518125" style="stroke: #000000; stroke-width: 0.8"/>
      </g>
     </g>
     <g id="text_18">
      <!-- 0 -->
      <g transform="translate(473.866875 317.155938)scale(0.14 -0.14)">
       <use xlink:href="#DejaVuSans-30"/>
      </g>
     </g>
    </g>
    <g id="xtick_6">
     <g id="line2d_20">
      <g>
       <use xlink:href="#m3b6be0b88d" x="566.953018" y="299.518125" style="stroke: #000000; stroke-width: 0.8"/>
      </g>
     </g>
     <g id="text_19">
      <!-- 20 -->
      <g transform="translate(558.045518 317.155938)scale(0.14 -0.14)">
       <use xlink:href="#DejaVuSans-32"/>
       <use xlink:href="#DejaVuSans-30" x="63.623047"/>
      </g>
     </g>
    </g>
    <g id="text_20">
     <!-- Distance from stim [um] -->
     <g transform="translate(356.265938 339.264375)scale(0.2 -0.2)">
      <use xlink:href="#DejaVuSans-44"/>
      <use xlink:href="#DejaVuSans-69" x="77.001953"/>
      <use xlink:href="#DejaVuSans-73" x="104.785156"/>
      <use xlink:href="#DejaVuSans-74" x="156.884766"/>
      <use xlink:href="#DejaVuSans-61" x="196.09375"/>
      <use xlink:href="#DejaVuSans-6e" x="257.373047"/>
      <use xlink:href="#DejaVuSans-63" x="320.751953"/>
      <use xlink:href="#DejaVuSans-65" x="375.732422"/>
      <use xlink:href="#DejaVuSans-20" x="437.255859"/>
      <use xlink:href="#DejaVuSans-66" x="469.042969"/>
      <use xlink:href="#DejaVuSans-72" x="504.248047"/>
      <use xlink:href="#DejaVuSans-6f" x="543.111328"/>
      <use xlink:href="#DejaVuSans-6d" x="604.292969"/>
      <use xlink:href="#DejaVuSans-20" x="701.705078"/>
      <use xlink:href="#DejaVuSans-73" x="733.492188"/>
      <use xlink:href="#DejaVuSans-74" x="785.591797"/>
      <use xlink:href="#DejaVuSans-69" x="824.800781"/>
      <use xlink:href="#DejaVuSans-6d" x="852.583984"/>
      <use xlink:href="#DejaVuSans-20" x="949.996094"/>
      <use xlink:href="#DejaVuSans-5b" x="981.783203"/>
      <use xlink:href="#DejaVuSans-75" x="1020.796875"/>
      <use xlink:href="#DejaVuSans-6d" x="1084.175781"/>
      <use xlink:href="#DejaVuSans-5d" x="1181.587891"/>
     </g>
    </g>
   </g>
   <g id="matplotlib.axis_4"/>
   <g id="line2d_21">
    <path d="M 366.422229 297.700802 
L 368.638039 296.878329 
L 370.853849 298.112038 
L 373.069659 297.974959 
L 375.285469 298.249117 
L 377.501278 298.523274 
L 379.717088 298.112038 
L 381.932898 298.660353 
L 384.148708 298.523274 
L 386.364518 298.934511 
L 388.580327 297.83788 
L 390.796137 298.660353 
L 393.011947 298.386195 
L 395.227757 298.112038 
L 397.443567 298.523274 
L 399.659377 298.112038 
L 401.875186 297.974959 
L 404.090996 298.112038 
L 406.306806 295.918778 
L 408.522616 296.604172 
L 410.738426 297.152487 
L 412.954235 297.426644 
L 415.170045 296.878329 
L 417.385855 296.467093 
L 419.601665 295.781699 
L 421.817475 295.918778 
L 424.033285 295.507541 
L 426.249094 293.314281 
L 428.464904 294.959226 
L 430.680714 292.903045 
L 432.896524 290.16147 
L 435.112334 290.572706 
L 437.328143 285.912028 
L 439.543953 285.637871 
L 441.759763 282.34798 
L 443.975573 283.718768 
L 446.191383 283.718768 
L 448.407192 282.34798 
L 450.623002 278.372696 
L 452.838812 275.631121 
L 455.054622 277.276066 
L 457.270432 274.260333 
L 459.486242 271.2446 
L 461.702051 273.437861 
L 463.917861 270.010892 
L 466.133671 267.817631 
L 468.349481 264.390662 
L 470.565291 265.898529 
L 472.7811 253.150204 
L 474.99691 237.386146 
L 477.21272 67.40848 
L 479.42853 63.570275 
L 481.64434 236.152437 
L 483.86015 243.828848 
L 486.075959 263.705269 
L 488.291769 265.076056 
L 490.507579 263.019875 
L 492.723389 265.213135 
L 494.939199 259.181669 
L 497.155008 267.817631 
L 499.370818 263.56819 
L 501.586628 267.406395 
L 503.802438 272.478309 
L 506.018248 266.721001 
L 508.234058 267.269316 
L 510.449867 271.2446 
L 512.665677 269.736734 
L 514.881487 266.995159 
L 517.097297 273.437861 
L 519.313107 279.332247 
L 521.528916 279.743484 
L 523.744726 280.017641 
L 525.960536 278.646854 
L 528.176346 285.226634 
L 530.392156 284.678319 
L 532.607965 289.476076 
L 534.823775 290.846864 
L 537.039585 292.903045 
L 539.255395 291.943494 
L 541.471205 293.862596 
L 543.687015 295.233384 
L 545.902824 295.370463 
L 548.118634 295.64462 
L 550.334444 296.192935 
L 552.550254 297.152487 
L 554.766064 296.330014 
L 556.981873 297.974959 
L 559.197683 297.83788 
L 561.413493 296.604172 
L 563.629303 297.563723 
L 565.845113 298.386195 
L 568.060923 297.289565 
L 570.276732 297.426644 
L 572.492542 298.523274 
L 574.708352 297.700802 
L 576.924162 298.112038 
L 579.139972 298.934511 
L 581.355781 297.289565 
L 583.571591 298.797432 
L 585.787401 298.112038 
L 588.003211 298.660353 
L 590.219021 298.386195 
" clip-path="url(#p1583fd6d56)" style="fill: none; stroke: #1f77b4; stroke-width: 1.5; stroke-linecap: square"/>
   </g>
   <g id="line2d_22">
    <path d="M 366.422229 299.071589 
L 368.638039 298.934511 
L 370.853849 299.071589 
L 373.069659 298.386195 
L 375.285469 298.112038 
L 377.501278 298.249117 
L 379.717088 298.386195 
L 381.932898 298.112038 
L 384.148708 298.660353 
L 386.364518 297.83788 
L 388.580327 296.604172 
L 390.796137 297.974959 
L 393.011947 297.426644 
L 395.227757 298.112038 
L 397.443567 297.426644 
L 399.659377 297.015408 
L 401.875186 296.055857 
L 404.090996 296.192935 
L 406.306806 294.136754 
L 408.522616 295.507541 
L 410.738426 293.45136 
L 412.954235 291.806415 
L 415.170045 290.709785 
L 417.385855 287.419894 
L 419.601665 287.282816 
L 421.817475 285.912028 
L 424.033285 285.226634 
L 426.249094 283.992925 
L 428.464904 283.44461 
L 430.680714 285.363713 
L 432.896524 280.977193 
L 435.112334 280.15472 
L 437.328143 278.509775 
L 439.543953 276.590672 
L 441.759763 274.67157 
L 443.975573 274.534491 
L 446.191383 275.082806 
L 448.407192 271.107522 
L 450.623002 269.462577 
L 452.838812 266.583923 
L 455.054622 263.019875 
L 457.270432 269.325498 
L 459.486242 265.076056 
L 461.702051 262.060323 
L 463.917861 261.37493 
L 466.133671 266.309765 
L 468.349481 257.536724 
L 470.565291 252.053574 
L 472.7811 259.867063 
L 474.99691 225.87153 
L 477.21272 33.412947 
L 479.42853 55.893864 
L 481.64434 233.547941 
L 483.86015 260.141221 
L 486.075959 257.399645 
L 488.291769 265.487292 
L 490.507579 267.132238 
L 492.723389 265.076056 
L 494.939199 270.010892 
L 497.155008 271.518758 
L 499.370818 269.736734 
L 501.586628 272.067073 
L 503.802438 271.792916 
L 506.018248 269.462577 
L 508.234058 273.437861 
L 510.449867 277.96146 
L 512.665677 279.469326 
L 514.881487 279.195169 
L 517.097297 279.469326 
L 519.313107 282.759217 
L 521.528916 282.896295 
L 523.744726 279.469326 
L 525.960536 280.977193 
L 528.176346 282.759217 
L 530.392156 284.952477 
L 532.607965 289.06484 
L 534.823775 290.435627 
L 537.039585 291.395179 
L 539.255395 290.983942 
L 541.471205 292.35473 
L 543.687015 293.862596 
L 545.902824 295.370463 
L 548.118634 295.507541 
L 550.334444 294.959226 
L 552.550254 296.467093 
L 554.766064 295.781699 
L 556.981873 296.604172 
L 559.197683 296.192935 
L 561.413493 297.289565 
L 563.629303 298.797432 
L 565.845113 297.974959 
L 568.060923 298.523274 
L 570.276732 297.974959 
L 572.492542 298.112038 
L 574.708352 298.523274 
L 576.924162 297.015408 
L 579.139972 298.797432 
L 581.355781 298.797432 
L 583.571591 298.112038 
L 585.787401 298.660353 
L 588.003211 295.233384 
L 590.219021 296.192935 
" clip-path="url(#p1583fd6d56)" style="fill: none; stroke: #2ca02c; stroke-width: 1.5; stroke-linecap: square"/>
   </g>
   <g id="line2d_23">
    <path d="M 366.422229 299.208668 
L 368.638039 298.249117 
L 370.853849 298.797432 
L 373.069659 299.071589 
L 375.285469 298.797432 
L 377.501278 298.112038 
L 379.717088 298.934511 
L 381.932898 299.345747 
L 384.148708 298.797432 
L 386.364518 298.249117 
L 388.580327 298.660353 
L 390.796137 299.208668 
L 393.011947 297.974959 
L 395.227757 298.386195 
L 397.443567 298.112038 
L 399.659377 299.071589 
L 401.875186 298.386195 
L 404.090996 299.071589 
L 406.306806 298.934511 
L 408.522616 298.112038 
L 410.738426 298.386195 
L 412.954235 299.345747 
L 415.170045 298.797432 
L 417.385855 298.934511 
L 419.601665 298.934511 
L 421.817475 298.523274 
L 424.033285 298.523274 
L 426.249094 298.934511 
L 428.464904 298.249117 
L 430.680714 297.700802 
L 432.896524 298.797432 
L 435.112334 297.015408 
L 437.328143 297.152487 
L 439.543953 297.974959 
L 441.759763 297.974959 
L 443.975573 298.112038 
L 446.191383 298.249117 
L 448.407192 297.563723 
L 450.623002 297.289565 
L 452.838812 296.878329 
L 455.054622 297.015408 
L 457.270432 297.152487 
L 459.486242 293.040124 
L 461.702051 295.233384 
L 463.917861 294.273833 
L 466.133671 292.628887 
L 468.349481 291.532257 
L 470.565291 287.694052 
L 472.7811 282.073823 
L 474.99691 267.269316 
L 477.21272 80.842199 
L 479.42853 87.970295 
L 481.64434 265.898529 
L 483.86015 281.25135 
L 486.075959 287.145737 
L 488.291769 289.06484 
L 490.507579 293.725518 
L 492.723389 294.685069 
L 494.939199 294.410911 
L 497.155008 295.507541 
L 499.370818 297.015408 
L 501.586628 296.055857 
L 503.802438 297.015408 
L 506.018248 298.386195 
L 508.234058 298.386195 
L 510.449867 297.700802 
L 512.665677 297.563723 
L 514.881487 295.918778 
L 517.097297 298.523274 
L 519.313107 298.660353 
L 521.528916 296.604172 
L 523.744726 297.289565 
L 525.960536 298.112038 
L 528.176346 298.797432 
L 530.392156 299.071589 
L 532.607965 298.797432 
L 534.823775 298.386195 
L 537.039585 298.386195 
L 539.255395 298.386195 
L 541.471205 297.974959 
L 543.687015 299.071589 
L 545.902824 299.208668 
L 548.118634 297.700802 
L 550.334444 298.249117 
L 552.550254 298.797432 
L 554.766064 298.934511 
L 556.981873 299.071589 
L 559.197683 298.249117 
L 561.413493 299.071589 
L 563.629303 299.482826 
L 565.845113 299.071589 
L 568.060923 299.208668 
L 570.276732 297.563723 
L 572.492542 298.523274 
L 574.708352 299.756983 
L 576.924162 298.660353 
L 579.139972 299.071589 
L 581.355781 298.660353 
L 583.571591 298.797432 
L 585.787401 298.797432 
L 588.003211 297.974959 
L 590.219021 298.523274 
" clip-path="url(#p1583fd6d56)" style="fill: none; stroke: #17becf; stroke-width: 1.5; stroke-linecap: square"/>
   </g>
   <g id="line2d_24">
    <path d="M 366.422229 299.345747 
L 368.638039 299.071589 
L 370.853849 295.64462 
L 373.069659 299.482826 
L 375.285469 298.934511 
L 377.501278 298.660353 
L 379.717088 298.386195 
L 381.932898 298.660353 
L 384.148708 299.071589 
L 386.364518 298.386195 
L 388.580327 298.523274 
L 390.796137 298.660353 
L 393.011947 298.386195 
L 395.227757 298.523274 
L 397.443567 297.974959 
L 399.659377 298.249117 
L 401.875186 298.112038 
L 404.090996 298.523274 
L 406.306806 297.974959 
L 408.522616 298.660353 
L 410.738426 298.934511 
L 412.954235 298.660353 
L 415.170045 297.015408 
L 417.385855 299.208668 
L 419.601665 299.345747 
L 421.817475 297.700802 
L 424.033285 298.523274 
L 426.249094 298.934511 
L 428.464904 298.249117 
L 430.680714 298.660353 
L 432.896524 298.386195 
L 435.112334 297.426644 
L 437.328143 298.934511 
L 439.543953 297.015408 
L 441.759763 298.797432 
L 443.975573 297.426644 
L 446.191383 298.386195 
L 448.407192 298.249117 
L 450.623002 298.249117 
L 452.838812 296.74125 
L 455.054622 296.604172 
L 457.270432 294.273833 
L 459.486242 296.604172 
L 461.702051 294.959226 
L 463.917861 293.725518 
L 466.133671 293.588439 
L 468.349481 291.943494 
L 470.565291 287.694052 
L 472.7811 282.622138 
L 474.99691 269.325498 
L 477.21272 94.412997 
L 479.42853 99.073675 
L 481.64434 267.543474 
L 483.86015 282.896295 
L 486.075959 286.871579 
L 488.291769 290.983942 
L 490.507579 293.725518 
L 492.723389 294.410911 
L 494.939199 295.781699 
L 497.155008 297.152487 
L 499.370818 296.467093 
L 501.586628 297.563723 
L 503.802438 298.249117 
L 506.018248 298.523274 
L 508.234058 297.015408 
L 510.449867 297.152487 
L 512.665677 298.249117 
L 514.881487 297.563723 
L 517.097297 298.660353 
L 519.313107 297.152487 
L 521.528916 297.974959 
L 523.744726 297.563723 
L 525.960536 298.386195 
L 528.176346 298.386195 
L 530.392156 299.071589 
L 532.607965 297.83788 
L 534.823775 299.345747 
L 537.039585 296.74125 
L 539.255395 298.523274 
L 541.471205 297.974959 
L 543.687015 298.660353 
L 545.902824 297.700802 
L 548.118634 298.797432 
L 550.334444 297.974959 
L 552.550254 298.523274 
L 554.766064 297.700802 
L 556.981873 298.934511 
L 559.197683 298.660353 
L 561.413493 298.797432 
L 563.629303 298.660353 
L 565.845113 298.112038 
L 568.060923 298.660353 
L 570.276732 298.523274 
L 572.492542 298.523274 
L 574.708352 299.071589 
L 576.924162 298.112038 
L 579.139972 298.386195 
L 581.355781 299.208668 
L 583.571591 299.071589 
L 585.787401 298.386195 
L 588.003211 299.208668 
L 590.219021 297.289565 
" clip-path="url(#p1583fd6d56)" style="fill: none; stroke: #bcbd22; stroke-width: 1.5; stroke-linecap: square"/>
   </g>
   <g id="patch_9">
    <path d="M 355.23239 299.518125 
L 355.23239 22.318125 
" style="fill: none; stroke: #000000; stroke-width: 0.8; stroke-linejoin: miter; stroke-linecap: square"/>
   </g>
   <g id="patch_10">
    <path d="M 601.40886 299.518125 
L 601.40886 22.318125 
" style="fill: none; stroke: #000000; stroke-width: 0.8; stroke-linejoin: miter; stroke-linecap: square"/>
   </g>
   <g id="patch_11">
    <path d="M 355.23239 299.518125 
L 601.40886 299.518125 
" style="fill: none; stroke: #000000; stroke-width: 0.8; stroke-linejoin: miter; stroke-linecap: square"/>
   </g>
   <g id="patch_12">
    <path d="M 355.23239 22.318125 
L 601.40886 22.318125 
" style="fill: none; stroke: #000000; stroke-width: 0.8; stroke-linejoin: miter; stroke-linecap: square"/>
   </g>
   <g id="text_21">
    <!-- 2 uM Ca injection diam 2.4 um -->
    <g transform="translate(386.41 16.318125)scale(0.12 -0.12)">
     <use xlink:href="#DejaVuSans-32"/>
     <use xlink:href="#DejaVuSans-20" x="63.623047"/>
     <use xlink:href="#DejaVuSans-75" x="95.410156"/>
     <use xlink:href="#DejaVuSans-4d" x="158.789062"/>
     <use xlink:href="#DejaVuSans-20" x="245.068359"/>
     <use xlink:href="#DejaVuSans-43" x="276.855469"/>
     <use xlink:href="#DejaVuSans-61" x="346.679688"/>
     <use xlink:href="#DejaVuSans-20" x="407.958984"/>
     <use xlink:href="#DejaVuSans-69" x="439.746094"/>
     <use xlink:href="#DejaVuSans-6e" x="467.529297"/>
     <use xlink:href="#DejaVuSans-6a" x="530.908203"/>
     <use xlink:href="#DejaVuSans-65" x="558.691406"/>
     <use xlink:href="#DejaVuSans-63" x="620.214844"/>
     <use xlink:href="#DejaVuSans-74" x="675.195312"/>
     <use xlink:href="#DejaVuSans-69" x="714.404297"/>
     <use xlink:href="#DejaVuSans-6f" x="742.1875"/>
     <use xlink:href="#DejaVuSans-6e" x="803.369141"/>
     <use xlink:href="#DejaVuSans-20" x="866.748047"/>
     <use xlink:href="#DejaVuSans-64" x="898.535156"/>
     <use xlink:href="#DejaVuSans-69" x="962.011719"/>
     <use xlink:href="#DejaVuSans-61" x="989.794922"/>
     <use xlink:href="#DejaVuSans-6d" x="1051.074219"/>
     <use xlink:href="#DejaVuSans-20" x="1148.486328"/>
     <use xlink:href="#DejaVuSans-32" x="1180.273438"/>
     <use xlink:href="#DejaVuSans-2e" x="1243.896484"/>
     <use xlink:href="#DejaVuSans-34" x="1275.683594"/>
     <use xlink:href="#DejaVuSans-20" x="1339.306641"/>
     <use xlink:href="#DejaVuSans-75" x="1371.09375"/>
     <use xlink:href="#DejaVuSans-6d" x="1434.472656"/>
    </g>
   </g>
  </g>
  <g id="axes_3">
   <g id="patch_13">
    <path d="M 650.644154 299.518125 
L 896.820625 299.518125 
L 896.820625 22.318125 
L 650.644154 22.318125 
z
" style="fill: #ffffff"/>
   </g>
   <g id="matplotlib.axis_5">
    <g id="xtick_7">
     <g id="line2d_25">
      <g>
       <use xlink:href="#m3b6be0b88d" x="685.099997" y="299.518125" style="stroke: #000000; stroke-width: 0.8"/>
      </g>
     </g>
     <g id="text_22">
      <!-- −20 -->
      <g transform="translate(670.326716 317.155938)scale(0.14 -0.14)">
       <use xlink:href="#DejaVuSans-2212"/>
       <use xlink:href="#DejaVuSans-32" x="83.789062"/>
       <use xlink:href="#DejaVuSans-30" x="147.412109"/>
      </g>
     </g>
    </g>
    <g id="xtick_8">
     <g id="line2d_26">
      <g>
       <use xlink:href="#m3b6be0b88d" x="773.73239" y="299.518125" style="stroke: #000000; stroke-width: 0.8"/>
      </g>
     </g>
     <g id="text_23">
      <!-- 0 -->
      <g transform="translate(769.27864 317.155938)scale(0.14 -0.14)">
       <use xlink:href="#DejaVuSans-30"/>
      </g>
     </g>
    </g>
    <g id="xtick_9">
     <g id="line2d_27">
      <g>
       <use xlink:href="#m3b6be0b88d" x="862.364782" y="299.518125" style="stroke: #000000; stroke-width: 0.8"/>
      </g>
     </g>
     <g id="text_24">
      <!-- 20 -->
      <g transform="translate(853.457282 317.155938)scale(0.14 -0.14)">
       <use xlink:href="#DejaVuSans-32"/>
       <use xlink:href="#DejaVuSans-30" x="63.623047"/>
      </g>
     </g>
    </g>
    <g id="text_25">
     <!-- Distance from stim [um] -->
     <g transform="translate(651.677702 339.264375)scale(0.2 -0.2)">
      <use xlink:href="#DejaVuSans-44"/>
      <use xlink:href="#DejaVuSans-69" x="77.001953"/>
      <use xlink:href="#DejaVuSans-73" x="104.785156"/>
      <use xlink:href="#DejaVuSans-74" x="156.884766"/>
      <use xlink:href="#DejaVuSans-61" x="196.09375"/>
      <use xlink:href="#DejaVuSans-6e" x="257.373047"/>
      <use xlink:href="#DejaVuSans-63" x="320.751953"/>
      <use xlink:href="#DejaVuSans-65" x="375.732422"/>
      <use xlink:href="#DejaVuSans-20" x="437.255859"/>
      <use xlink:href="#DejaVuSans-66" x="469.042969"/>
      <use xlink:href="#DejaVuSans-72" x="504.248047"/>
      <use xlink:href="#DejaVuSans-6f" x="543.111328"/>
      <use xlink:href="#DejaVuSans-6d" x="604.292969"/>
      <use xlink:href="#DejaVuSans-20" x="701.705078"/>
      <use xlink:href="#DejaVuSans-73" x="733.492188"/>
      <use xlink:href="#DejaVuSans-74" x="785.591797"/>
      <use xlink:href="#DejaVuSans-69" x="824.800781"/>
      <use xlink:href="#DejaVuSans-6d" x="852.583984"/>
      <use xlink:href="#DejaVuSans-20" x="949.996094"/>
      <use xlink:href="#DejaVuSans-5b" x="981.783203"/>
      <use xlink:href="#DejaVuSans-75" x="1020.796875"/>
      <use xlink:href="#DejaVuSans-6d" x="1084.175781"/>
      <use xlink:href="#DejaVuSans-5d" x="1181.587891"/>
     </g>
    </g>
   </g>
   <g id="matplotlib.axis_6"/>
   <g id="line2d_28">
    <path d="M 661.833994 301.057868 
L 664.049804 300.953372 
L 666.265614 301.00562 
L 668.481423 300.326398 
L 670.697233 300.901124 
L 672.913043 300.587637 
L 675.128853 301.47585 
L 677.344663 301.00562 
L 679.560473 301.110116 
L 681.776282 301.00562 
L 683.992092 300.901124 
L 686.207902 301.110116 
L 688.423712 300.744381 
L 690.639522 300.848876 
L 692.855331 300.953372 
L 695.071141 300.53539 
L 697.286951 300.692133 
L 699.502761 300.848876 
L 701.718571 300.848876 
L 703.93438 300.692133 
L 706.15019 300.848876 
L 708.366 300.065159 
L 710.58181 300.53539 
L 712.79762 300.117407 
L 715.01343 300.012911 
L 717.229239 299.80392 
L 719.445049 299.438185 
L 721.660859 299.960664 
L 723.876669 299.490433 
L 726.092479 299.647177 
L 728.308288 299.281442 
L 730.524098 299.385937 
L 732.739908 299.124698 
L 734.955718 298.706716 
L 737.171528 298.654468 
L 739.387338 298.340981 
L 741.603147 297.870751 
L 743.818957 296.93029 
L 746.034767 296.407812 
L 748.250577 296.512307 
L 750.466387 296.303316 
L 752.682196 295.206112 
L 754.898006 293.847668 
L 757.113816 293.063951 
L 759.329626 293.168447 
L 761.545436 291.287525 
L 763.761246 290.190321 
L 765.977055 288.466143 
L 768.192865 282.927874 
L 770.408675 265.842836 
L 772.624485 83.602434 
L 774.840295 83.288947 
L 777.056104 267.776005 
L 779.271914 283.450352 
L 781.487724 288.622886 
L 783.703534 285.697008 
L 785.919344 291.339773 
L 788.135154 292.12349 
L 790.350963 294.004412 
L 792.566773 295.049368 
L 794.782583 295.049368 
L 796.998393 294.370147 
L 799.214203 296.564555 
L 801.430012 296.93029 
L 803.645822 297.191529 
L 805.861632 297.818503 
L 808.077442 298.288733 
L 810.293252 297.870751 
L 812.509061 298.758964 
L 814.724871 299.33369 
L 816.940681 298.60222 
L 819.156491 299.490433 
L 821.372301 298.393229 
L 823.588111 299.542681 
L 825.80392 300.065159 
L 828.01973 300.065159 
L 830.23554 300.378646 
L 832.45135 300.53539 
L 834.66716 300.483142 
L 836.882969 300.639885 
L 839.098779 300.117407 
L 841.314589 300.639885 
L 843.530399 300.587637 
L 845.746209 300.326398 
L 847.962019 300.744381 
L 850.177828 301.162363 
L 852.393638 300.744381 
L 854.609448 300.744381 
L 856.825258 300.848876 
L 859.041068 300.587637 
L 861.256877 300.901124 
L 863.472687 300.692133 
L 865.688497 301.319107 
L 867.904307 301.057868 
L 870.120117 301.162363 
L 872.335927 301.319107 
L 874.551736 301.057868 
L 876.767546 301.110116 
L 878.983356 301.319107 
L 881.199166 301.371355 
L 883.414976 301.00562 
L 885.630785 300.901124 
" clip-path="url(#pbfa9ab2111)" style="fill: none; stroke: #1f77b4; stroke-width: 1.5; stroke-linecap: square"/>
   </g>
   <g id="line2d_29">
    <path d="M 661.833994 301.684842 
L 664.049804 300.587637 
L 666.265614 301.319107 
L 668.481423 301.110116 
L 670.697233 300.796629 
L 672.913043 301.266859 
L 675.128853 301.00562 
L 677.344663 300.483142 
L 679.560473 301.214611 
L 681.776282 301.371355 
L 683.992092 300.744381 
L 686.207902 300.692133 
L 688.423712 300.744381 
L 690.639522 301.00562 
L 692.855331 301.214611 
L 695.071141 300.587637 
L 697.286951 301.266859 
L 699.502761 300.483142 
L 701.718571 301.00562 
L 703.93438 300.587637 
L 706.15019 300.53539 
L 708.366 299.647177 
L 710.58181 300.27415 
L 712.79762 300.953372 
L 715.01343 300.587637 
L 717.229239 299.960664 
L 719.445049 300.012911 
L 721.660859 298.915707 
L 723.876669 299.385937 
L 726.092479 300.117407 
L 728.308288 299.856168 
L 730.524098 299.438185 
L 732.739908 299.124698 
L 734.955718 298.654468 
L 737.171528 298.654468 
L 739.387338 298.654468 
L 741.603147 298.184238 
L 743.818957 297.818503 
L 746.034767 296.982538 
L 748.250577 297.714007 
L 750.466387 296.042077 
L 752.682196 296.251068 
L 754.898006 294.213403 
L 757.113816 294.422394 
L 759.329626 294.317899 
L 761.545436 291.392021 
L 763.761246 290.503808 
L 765.977055 288.936373 
L 768.192865 283.450352 
L 770.408675 261.401771 
L 772.624485 84.386152 
L 774.840295 91.073873 
L 777.056104 266.783297 
L 779.271914 282.718882 
L 781.487724 287.421186 
L 783.703534 287.682425 
L 785.919344 290.660551 
L 788.135154 292.436977 
L 790.350963 294.892625 
L 792.566773 296.094325 
L 794.782583 296.669051 
L 796.998393 297.243777 
L 799.214203 297.452768 
L 801.430012 298.236485 
L 803.645822 298.758964 
L 805.861632 298.393229 
L 808.077442 298.811211 
L 810.293252 299.229194 
L 812.509061 299.072451 
L 814.724871 299.438185 
L 816.940681 299.908416 
L 819.156491 299.960664 
L 821.372301 299.438185 
L 823.588111 299.856168 
L 825.80392 299.960664 
L 828.01973 299.856168 
L 830.23554 299.33369 
L 832.45135 300.065159 
L 834.66716 299.908416 
L 836.882969 299.80392 
L 839.098779 300.53539 
L 841.314589 300.848876 
L 843.530399 300.744381 
L 845.746209 300.430894 
L 847.962019 300.953372 
L 850.177828 301.266859 
L 852.393638 300.848876 
L 854.609448 300.53539 
L 856.825258 301.057868 
L 859.041068 301.214611 
L 861.256877 301.266859 
L 863.472687 300.953372 
L 865.688497 301.110116 
L 867.904307 300.378646 
L 870.120117 301.371355 
L 872.335927 301.528098 
L 874.551736 300.953372 
L 876.767546 301.47585 
L 878.983356 301.00562 
L 881.199166 301.47585 
L 883.414976 300.848876 
L 885.630785 301.110116 
" clip-path="url(#pbfa9ab2111)" style="fill: none; stroke: #2ca02c; stroke-width: 1.5; stroke-linecap: square"/>
   </g>
   <g id="line2d_30">
    <path d="M 661.833994 301.423603 
L 664.049804 301.214611 
L 666.265614 301.580346 
L 668.481423 301.266859 
L 670.697233 301.319107 
L 672.913043 300.692133 
L 675.128853 301.110116 
L 677.344663 301.214611 
L 679.560473 301.214611 
L 681.776282 301.00562 
L 683.992092 301.057868 
L 686.207902 300.901124 
L 688.423712 300.744381 
L 690.639522 301.371355 
L 692.855331 301.214611 
L 695.071141 300.848876 
L 697.286951 301.00562 
L 699.502761 301.371355 
L 701.718571 301.371355 
L 703.93438 300.953372 
L 706.15019 300.430894 
L 708.366 300.692133 
L 710.58181 300.848876 
L 712.79762 301.266859 
L 715.01343 301.00562 
L 717.229239 299.908416 
L 719.445049 300.221903 
L 721.660859 300.848876 
L 723.876669 300.692133 
L 726.092479 300.27415 
L 728.308288 300.378646 
L 730.524098 299.960664 
L 732.739908 300.430894 
L 734.955718 300.901124 
L 737.171528 299.751672 
L 739.387338 300.221903 
L 741.603147 300.169655 
L 743.818957 300.117407 
L 746.034767 300.169655 
L 748.250577 299.438185 
L 750.466387 298.706716 
L 752.682196 298.915707 
L 754.898006 297.975246 
L 757.113816 298.393229 
L 759.329626 297.139281 
L 761.545436 296.616803 
L 763.761246 294.579138 
L 765.977055 292.175738 
L 768.192865 287.159947 
L 770.408675 272.373814 
L 772.624485 102.098163 
L 774.840295 101.157702 
L 777.056104 275.404187 
L 779.271914 287.995912 
L 781.487724 293.063951 
L 783.703534 294.161155 
L 785.919344 296.616803 
L 788.135154 297.243777 
L 790.350963 297.922998 
L 792.566773 297.975246 
L 794.782583 299.072451 
L 796.998393 299.385937 
L 799.214203 299.33369 
L 801.430012 299.751672 
L 803.645822 300.012911 
L 805.861632 299.699424 
L 808.077442 299.908416 
L 810.293252 299.856168 
L 812.509061 300.796629 
L 814.724871 300.587637 
L 816.940681 300.065159 
L 819.156491 301.110116 
L 821.372301 300.639885 
L 823.588111 300.848876 
L 825.80392 300.378646 
L 828.01973 300.744381 
L 830.23554 300.587637 
L 832.45135 300.639885 
L 834.66716 301.057868 
L 836.882969 301.110116 
L 839.098779 301.371355 
L 841.314589 300.901124 
L 843.530399 300.692133 
L 845.746209 300.639885 
L 847.962019 300.796629 
L 850.177828 300.430894 
L 852.393638 301.47585 
L 854.609448 301.057868 
L 856.825258 301.00562 
L 859.041068 301.266859 
L 861.256877 301.00562 
L 863.472687 301.423603 
L 865.688497 301.319107 
L 867.904307 301.371355 
L 870.120117 301.110116 
L 872.335927 300.848876 
L 874.551736 301.319107 
L 876.767546 301.319107 
L 878.983356 301.47585 
L 881.199166 301.057868 
L 883.414976 301.632594 
L 885.630785 301.162363 
" clip-path="url(#pbfa9ab2111)" style="fill: none; stroke: #17becf; stroke-width: 1.5; stroke-linecap: square"/>
   </g>
   <g id="line2d_31">
    <path d="M 661.833994 301.47585 
L 664.049804 301.110116 
L 666.265614 301.423603 
L 668.481423 301.319107 
L 670.697233 301.580346 
L 672.913043 301.266859 
L 675.128853 301.00562 
L 677.344663 300.953372 
L 679.560473 301.737089 
L 681.776282 301.423603 
L 683.992092 301.632594 
L 686.207902 300.744381 
L 688.423712 301.580346 
L 690.639522 301.214611 
L 692.855331 301.162363 
L 695.071141 301.214611 
L 697.286951 300.796629 
L 699.502761 300.692133 
L 701.718571 300.953372 
L 703.93438 301.580346 
L 706.15019 300.744381 
L 708.366 301.528098 
L 710.58181 301.00562 
L 712.79762 301.162363 
L 715.01343 301.266859 
L 717.229239 301.00562 
L 719.445049 301.00562 
L 721.660859 300.848876 
L 723.876669 300.744381 
L 726.092479 300.901124 
L 728.308288 300.483142 
L 730.524098 301.00562 
L 732.739908 300.221903 
L 734.955718 300.012911 
L 737.171528 301.00562 
L 739.387338 300.587637 
L 741.603147 300.169655 
L 743.818957 300.378646 
L 746.034767 300.326398 
L 748.250577 299.281442 
L 750.466387 299.176946 
L 752.682196 299.281442 
L 754.898006 298.706716 
L 757.113816 297.557264 
L 759.329626 297.191529 
L 761.545436 296.825794 
L 763.761246 295.153864 
L 765.977055 291.392021 
L 768.192865 287.943665 
L 770.408675 272.635053 
L 772.624485 105.546519 
L 774.840295 105.233032 
L 777.056104 273.784505 
L 779.271914 288.361647 
L 781.487724 292.907208 
L 783.703534 294.788129 
L 785.919344 296.19882 
L 788.135154 297.191529 
L 790.350963 298.393229 
L 792.566773 298.445477 
L 794.782583 299.020203 
L 796.998393 299.751672 
L 799.214203 299.856168 
L 801.430012 299.699424 
L 803.645822 299.856168 
L 805.861632 300.169655 
L 808.077442 300.430894 
L 810.293252 300.483142 
L 812.509061 299.908416 
L 814.724871 300.692133 
L 816.940681 301.214611 
L 819.156491 300.169655 
L 821.372301 300.901124 
L 823.588111 300.117407 
L 825.80392 299.751672 
L 828.01973 300.53539 
L 830.23554 301.162363 
L 832.45135 300.953372 
L 834.66716 301.162363 
L 836.882969 300.639885 
L 839.098779 300.953372 
L 841.314589 300.953372 
L 843.530399 301.162363 
L 845.746209 301.423603 
L 847.962019 301.266859 
L 850.177828 301.423603 
L 852.393638 300.796629 
L 854.609448 300.848876 
L 856.825258 300.587637 
L 859.041068 301.319107 
L 861.256877 300.692133 
L 863.472687 301.057868 
L 865.688497 301.371355 
L 867.904307 301.423603 
L 870.120117 301.47585 
L 872.335927 301.319107 
L 874.551736 301.110116 
L 876.767546 301.47585 
L 878.983356 301.110116 
L 881.199166 301.737089 
L 883.414976 301.00562 
L 885.630785 300.953372 
" clip-path="url(#pbfa9ab2111)" style="fill: none; stroke: #bcbd22; stroke-width: 1.5; stroke-linecap: square"/>
   </g>
   <g id="patch_14">
    <path d="M 650.644154 299.518125 
L 650.644154 22.318125 
" style="fill: none; stroke: #000000; stroke-width: 0.8; stroke-linejoin: miter; stroke-linecap: square"/>
   </g>
   <g id="patch_15">
    <path d="M 896.820625 299.518125 
L 896.820625 22.318125 
" style="fill: none; stroke: #000000; stroke-width: 0.8; stroke-linejoin: miter; stroke-linecap: square"/>
   </g>
   <g id="patch_16">
    <path d="M 650.644154 299.518125 
L 896.820625 299.518125 
" style="fill: none; stroke: #000000; stroke-width: 0.8; stroke-linejoin: miter; stroke-linecap: square"/>
   </g>
   <g id="patch_17">
    <path d="M 650.644154 22.318125 
L 896.820625 22.318125 
" style="fill: none; stroke: #000000; stroke-width: 0.8; stroke-linejoin: miter; stroke-linecap: square"/>
   </g>
   <g id="text_26">
    <!-- 2 uM Ca injection diam 6.0 um -->
    <g transform="translate(681.821765 16.318125)scale(0.12 -0.12)">
     <use xlink:href="#DejaVuSans-32"/>
     <use xlink:href="#DejaVuSans-20" x="63.623047"/>
     <use xlink:href="#DejaVuSans-75" x="95.410156"/>
     <use xlink:href="#DejaVuSans-4d" x="158.789062"/>
     <use xlink:href="#DejaVuSans-20" x="245.068359"/>
     <use xlink:href="#DejaVuSans-43" x="276.855469"/>
     <use xlink:href="#DejaVuSans-61" x="346.679688"/>
     <use xlink:href="#DejaVuSans-20" x="407.958984"/>
     <use xlink:href="#DejaVuSans-69" x="439.746094"/>
     <use xlink:href="#DejaVuSans-6e" x="467.529297"/>
     <use xlink:href="#DejaVuSans-6a" x="530.908203"/>
     <use xlink:href="#DejaVuSans-65" x="558.691406"/>
     <use xlink:href="#DejaVuSans-63" x="620.214844"/>
     <use xlink:href="#DejaVuSans-74" x="675.195312"/>
     <use xlink:href="#DejaVuSans-69" x="714.404297"/>
     <use xlink:href="#DejaVuSans-6f" x="742.1875"/>
     <use xlink:href="#DejaVuSans-6e" x="803.369141"/>
     <use xlink:href="#DejaVuSans-20" x="866.748047"/>
     <use xlink:href="#DejaVuSans-64" x="898.535156"/>
     <use xlink:href="#DejaVuSans-69" x="962.011719"/>
     <use xlink:href="#DejaVuSans-61" x="989.794922"/>
     <use xlink:href="#DejaVuSans-6d" x="1051.074219"/>
     <use xlink:href="#DejaVuSans-20" x="1148.486328"/>
     <use xlink:href="#DejaVuSans-36" x="1180.273438"/>
     <use xlink:href="#DejaVuSans-2e" x="1243.896484"/>
     <use xlink:href="#DejaVuSans-30" x="1275.683594"/>
     <use xlink:href="#DejaVuSans-20" x="1339.306641"/>
     <use xlink:href="#DejaVuSans-75" x="1371.09375"/>
     <use xlink:href="#DejaVuSans-6d" x="1434.472656"/>
    </g>
   </g>
  </g>
 </g>
 <defs>
  <clipPath id="p2af92d8a42">
   <rect x="59.820625" y="22.318125" width="246.176471" height="277.2"/>
  </clipPath>
  <clipPath id="p1583fd6d56">
   <rect x="355.23239" y="22.318125" width="246.176471" height="277.2"/>
  </clipPath>
  <clipPath id="pbfa9ab2111">
   <rect x="650.644154" y="22.318125" width="246.176471" height="277.2"/>
  </clipPath>
 </defs>
</svg>
